<?xml version="1.0" ?><!DOCTYPE svg  PUBLIC '-//W3C//DTD SVG 1.1//EN'  'http://www.w3.org/Graphics/SVG/1.1/DTD/svg11.dtd'><svg enable-background="new 0 0 512 512" height="512px" id="Son" version="1.1" viewBox="0 0 512 512" width="512px" xml:space="preserve" xmlns="http://www.w3.org/2000/svg" xmlns:xlink="http://www.w3.org/1999/xlink"><path d="M368.079,429.325c0,62.344-225.763,62.344-225.763,0c0-62.342,50.538-112.881,112.881-112.881  S368.079,366.983,368.079,429.325z" fill="#E89C21"/><path d="M255.198,316.444c-55.722,0-102.008,40.376-111.213,93.467c19.42,50.416,203.007,50.416,222.426,0  C357.207,356.82,310.92,316.444,255.198,316.444z" fill="#FFC866"/><path d="M142.44,429.325c0,17.054,16.9,29.436,41.443,37.159V341.947C158.593,362.647,142.44,394.094,142.44,429.325  z" fill="#ED9572"/><path d="M367.885,429.325c0-31.801-13.158-60.522-34.318-81.038v115.745  C354.197,456.242,367.885,444.675,367.885,429.325z" fill="#ED9572"/><path d="M144.109,409.911c4.819,12.511,19.754,21.914,39.775,28.215v-96.183  C163.348,358.754,148.836,382.65,144.109,409.911z" fill="#FFBF94"/><path d="M366.217,409.911c-4.159-23.99-15.897-45.376-32.649-61.62v87.376  C349.971,429.47,361.988,420.888,366.217,409.911z" fill="#FFBF94"/><path d="M314.885,390.126c0,27.614-22.386,50-50,50h-18c-27.614,0-50-22.386-50-50v-54c0-27.614,22.386-50,50-50h18  c27.614,0,50,22.386,50,50V390.126z" fill="#FFFFFF"/><g><path d="M264.885,306.126c16.542,0,30,13.458,30,30v54c0,16.542-13.458,30-30,30h-18c-16.542,0-30-13.458-30-30v-54   c0-16.542,13.458-30,30-30H264.885 M264.885,296.126h-18c-22.056,0-40,17.943-40,40v54c0,22.057,17.944,40,40,40h18   c22.056,0,40-17.943,40-40v-54C304.885,314.069,286.94,296.126,264.885,296.126L264.885,296.126z" fill="#B2AF79"/></g><path d="M256,287.854c-19.941,0-36.826,13.057-42.592,31.084c5.766,18.027,22.65,31.083,42.592,31.083  s36.827-13.056,42.593-31.083C292.827,300.911,275.941,287.854,256,287.854z" fill="#E5E5E5"/><circle cx="116.731" cy="213.146" fill="#FFBF94" r="36.537"/><path d="M116.73,235.504c-17.752,0-32.541-12.662-35.843-29.447c-0.451,2.294-0.693,4.663-0.693,7.09  c0,20.178,16.358,36.536,36.536,36.536c20.18,0,36.537-16.358,36.537-36.536c0-2.427-0.242-4.796-0.693-7.09  C149.273,222.842,134.483,235.504,116.73,235.504z" fill="#ED9572"/><circle cx="395.269" cy="213.146" fill="#FFBF94" r="36.537"/><path d="M395.27,235.504c-17.753,0-32.542-12.662-35.844-29.447c-0.451,2.294-0.693,4.663-0.693,7.09  c0,20.178,16.358,36.536,36.537,36.536s36.536-16.358,36.536-36.536c0-2.427-0.242-4.796-0.693-7.09  C427.812,222.842,413.021,235.504,395.27,235.504z" fill="#ED9572"/><path d="M383.84,158.614c-2.857-68.226-55.771-122.666-127.967-122.696v-0.001c-0.01,0-0.02,0-0.029,0  s-0.02,0-0.031,0v0.001c-72.193,0.03-125.107,54.471-127.965,122.696h-0.125v78.526h0.125  c2.855,68.224,60.129,100.864,127.965,100.884l0,0c0.012,0,0.021,0,0.031,0s0.02,0,0.029,0l0,0  c67.836-0.02,125.109-32.66,127.967-100.884h0.123v-78.526H383.84z" fill="#FFBF94"/><circle cx="174.045" cy="247.502" fill="#F97A7A" r="30.538"/><circle cx="337.642" cy="247.502" fill="#F97A7A" r="30.538"/><circle cx="208.294" cy="194.06" fill="#493E2F" r="17.45"/><circle cx="303.394" cy="194.06" fill="#493E2F" r="17.45"/><circle cx="255.844" cy="253.626" fill="#19929B" r="30.5"/><circle cx="255.844" cy="253.626" fill="#FFFFFF" r="20.5"/><path d="M255.844,264.126c-9.594,0-17.625-6.6-19.861-15.5c-0.402,1.604-0.639,3.272-0.639,5  c0,11.322,9.178,20.5,20.5,20.5s20.5-9.178,20.5-20.5c0-1.728-0.238-3.396-0.641-5C273.469,257.526,265.438,264.126,255.844,264.126  z" fill="#E5E5E5"/></svg>