<svg width="397" height="492" viewBox="0 0 397 492" fill="none" xmlns="http://www.w3.org/2000/svg">
<rect width="397" height="492" fill="#E5E5E5"/>
<path d="M145.5 202H158.5V213.5H145.5V202Z" fill="#0066CC"/>
<path d="M179 202H187.5V213.5H179V202Z" fill="#0066CC"/>
<path d="M206 202H220V213.5H206V202Z" fill="#0066CC"/>
<path d="M240.5 202H253.5V213.5H240.5V202Z" fill="#0066CC"/>
<path fill-rule="evenodd" clip-rule="evenodd" d="M96.5 221V445.091C101.183 448.244 106.021 451.184 111 453.899V344.5H165.5V473.107C169.946 473.908 174.448 474.548 179 475.02V221H134.5V188H141V180.5H260V188H267V221H220V474.684C224.725 474.115 229.394 473.364 234 472.44V344.5H287.5V452.51C291.777 450.089 295.947 447.501 300 444.753V221H281V173H253.5V140.5H239V105.5H228.5V84.5H221.5V69.5H214V9L202.5 0.5L193 9V64.5H185.5V84.5H179V105.5H171.5V140.5H151V173H124V221H96.5ZM111 330V235H165.5V330H111ZM287.5 235H234V330H287.5V235ZM239 154H158.5V173H239V154ZM220 140.5H179V126H220V140.5ZM220 105.5V111H185.5V105.5H193V90H199.5V69.5H206V93.5H214V105.5H220Z" fill="#0066CC"/>
<path d="M192.5 242.5H206V230H192.5V242.5Z" fill="#0066CC"/>
<path d="M192.5 277H206V263.5H192.5V277Z" fill="#0066CC"/>
<path d="M192.5 309.5H206V297H192.5V309.5Z" fill="#0066CC"/>
<path d="M192.5 344.5H206V330H192.5V344.5Z" fill="#0066CC"/>
<path d="M192.5 378.5H206V363.5H192.5V378.5Z" fill="#0066CC"/>
<path d="M192.5 407.5H206V394H192.5V407.5Z" fill="#0066CC"/>
<path d="M192.5 437.5V426.5H206V437.5H192.5Z" fill="#0066CC"/>
<path d="M192.5 453.899H206V467.5H192.5V453.899Z" fill="#0066CC"/>
<path d="M145.5 437.5H158.5V449H145.5V437.5Z" fill="#0066CC"/>
<path d="M121.5 437.5H134.5V449H121.5V437.5Z" fill="#0066CC"/>
<path d="M121.5 407.5V419.5H134.5V407.5H121.5Z" fill="#0066CC"/>
<path d="M145.5 407.5H158.5V419.5H145.5V407.5Z" fill="#0066CC"/>
<path d="M121.5 373.5H134.5V386H121.5V373.5Z" fill="#0066CC"/>
<path d="M240.5 386H252.5V373.5H240.5V386Z" fill="#0066CC"/>
<path d="M268.5 363.5H281.5V352.5H268.5V363.5Z" fill="#0066CC"/>
<path d="M268.5 386H281.5V398H268.5V386Z" fill="#0066CC"/>
<path d="M240.5 407.5H252.5V419.5H240.5V407.5Z" fill="#0066CC"/>
<path d="M240.5 437.5H252.5V449H240.5V437.5Z" fill="#0066CC"/>
<path d="M268.5 413.5H281.5V426.5H268.5V413.5Z" fill="#0066CC"/>
<path d="M267 297H281V309.5H267V297Z" fill="#0066CC"/>
<path d="M240.5 309.5H252.5V297H240.5V309.5Z" fill="#0066CC"/>
<path d="M240.5 277H252.5V263.5H240.5V277Z" fill="#0066CC"/>
<path d="M267 263.5H281V277H267V263.5Z" fill="#0066CC"/>
<path d="M145.5 263.5H158.5V277H145.5V263.5Z" fill="#0066CC"/>
<path d="M121.5 263.5H134.5V277H121.5V263.5Z" fill="#0066CC"/>
<path d="M121.5 297H134.5V309.5H121.5V297Z" fill="#0066CC"/>
<path d="M145.5 297H158.5V309.5H145.5V297Z" fill="#0066CC"/>
<path d="M68.5 297H16.0242C16.1086 302.223 16.4131 307.393 16.9287 312.5H68.5V297Z" fill="#0066CC"/>
<path d="M51 269.5H17.6349C17.058 273.788 16.6304 278.123 16.3574 282.5H51V269.5Z" fill="#0066CC"/>
<path d="M359.237 378.5H333.5V391.5H351.708C354.39 387.281 356.902 382.945 359.237 378.5Z" fill="#0066CC"/>
<path d="M304 199H353.269C350.964 195.241 348.527 191.572 345.963 188H304V199Z" fill="#0066CC"/>
<path d="M198.5 492C308.129 492 397 403.129 397 293.5C397 220.96 358.089 157.507 300 122.877V143.247C302.894 145.208 305.728 147.251 308.5 149.372C322.81 160.322 335.448 173.348 345.963 188C348.527 191.572 350.964 195.241 353.269 199C370.225 226.654 380 259.185 380 294C380 324.501 372.497 353.249 359.237 378.5C356.902 382.945 354.39 387.281 351.708 391.5C338.299 412.596 320.666 430.743 300 444.753C295.947 447.501 291.777 450.089 287.5 452.51C271.084 461.799 253.081 468.612 234 472.44C229.394 473.364 224.725 474.115 220 474.684C212.788 475.553 205.446 476 198 476C191.584 476 185.245 475.668 179 475.02C174.448 474.548 169.946 473.908 165.5 473.107C146.089 469.608 127.748 463.03 111 453.899C106.021 451.184 101.183 448.244 96.5 445.091C52.7613 415.65 22.5032 367.719 16.9287 312.5C16.4131 307.393 16.1086 302.223 16.0242 297C16.0081 296.002 16 295.002 16 294C16 290.137 16.1203 286.303 16.3574 282.5C16.6304 278.123 17.058 273.788 17.6349 269.5C24.6956 217.025 54.119 171.639 96 143.247L97 122.877C38.9112 157.507 0 220.96 0 293.5C0 403.129 88.8715 492 198.5 492Z" fill="#0066CC"/>
</svg>
