<?xml version="1.0" standalone="no"?>
<!DOCTYPE svg PUBLIC "-//W3C//DTD SVG 20010904//EN"
 "http://www.w3.org/TR/2001/REC-SVG-20010904/DTD/svg10.dtd">
<svg version="1.0" xmlns="http://www.w3.org/2000/svg"
 width="512.000000pt" height="512.000000pt" viewBox="0 0 512.000000 512.000000"
 preserveAspectRatio="xMidYMid meet">

<g transform="translate(0.000000,512.000000) scale(0.100000,-0.100000)"
fill="#000000" stroke="none">
<path  style="fill:  #990000; fill-opacity: .7;" d="M2460 4763 c-449 -20 -904 -188 -1260 -466 -96 -75 -282 -260 -360
-357 -256 -322 -413 -695 -471 -1120 -14 -109 -14 -410 0 -520 57 -423 215
-798 471 -1120 78 -97 264 -282 360 -357 313 -244 687 -398 1100 -454 110 -15
410 -15 520 0 413 56 787 210 1100 454 96 75 282 260 360 357 256 322 414 697
471 1120 14 110 14 411 0 520 -58 425 -215 798 -471 1120 -78 97 -264 282
-360 357 -410 320 -943 490 -1460 466z m-417 -1309 c8 -3 126 -124 263 -270
136 -145 250 -264 253 -264 4 0 112 113 241 251 129 138 246 260 259 270 15
12 40 19 67 19 42 0 47 -4 141 -100 119 -123 133 -144 133 -196 0 -53 3 -48
-270 -339 -124 -132 -229 -245 -233 -252 -5 -8 82 -108 238 -273 136 -144 250
-273 256 -287 16 -42 10 -87 -16 -122 -29 -41 -170 -187 -199 -207 -21 -14
-72 -19 -99 -8 -9 3 -127 124 -263 270 -136 145 -251 264 -255 264 -4 0 -116
-117 -249 -259 -133 -142 -253 -264 -267 -270 -13 -6 -40 -11 -59 -11 -31 0
-45 11 -132 101 -53 55 -104 112 -114 127 -20 30 -24 93 -7 124 6 11 121 137
255 281 l244 260 -22 26 c-13 14 -120 129 -239 256 -118 126 -223 241 -232
255 -19 28 -22 91 -6 121 16 31 185 211 211 226 24 13 76 17 101 7z"/>
</g>
</svg>
