<?xml version="1.0" standalone="no"?>
<!DOCTYPE svg PUBLIC "-//W3C//DTD SVG 20010904//EN"
 "http://www.w3.org/TR/2001/REC-SVG-20010904/DTD/svg10.dtd">
<svg version="1.0" xmlns="http://www.w3.org/2000/svg"
 width="4834.000000pt" height="3218.000000pt" viewBox="0 0 4834.000000 3218.000000"
 preserveAspectRatio="xMidYMid meet">
<metadata>
Created by potrace 1.15, written by Peter Selinger 2001-2017
</metadata>
<g transform="translate(0.000000,3218.000000) scale(0.100000,-0.100000)"
fill="#000000" stroke="none">
<path d="M41776 27449 c-263 -30 -477 -127 -657 -296 -38 -36 -69 -69 -69 -74
0 -4 24 3 53 16 222 98 573 138 1024 117 270 -13 421 -29 587 -62 54 -11 101
-20 104 -20 16 0 -54 59 -128 109 -245 164 -603 246 -914 210z"/>
<path d="M41560 27169 c-204 -25 -340 -60 -476 -124 -71 -33 -95 -50 -113 -78
-22 -36 -92 -190 -88 -194 2 -1 61 18 132 42 238 80 495 123 852 145 401 24
714 1 1032 -75 57 -14 106 -24 108 -22 5 6 -59 117 -98 170 -32 43 -38 47
-119 66 -97 23 -227 46 -350 62 -111 14 -783 20 -880 8z"/>
<path d="M42465 26903 c22 -52 65 -243 72 -319 7 -75 11 -89 27 -92 17 -4 18
1 11 65 -9 95 -31 205 -56 291 -18 58 -26 72 -42 72 -14 0 -17 -4 -12 -17z"/>
<path d="M10809 25138 c-6 -22 -5 -37 3 -32 7 4 7 -2 2 -17 -4 -13 -8 -50 -9
-81 -2 -48 1 -59 17 -64 10 -3 16 -10 12 -15 -4 -6 -11 -6 -19 1 -11 9 -13 1
-13 -42 0 -29 -1 -57 -2 -63 -1 -5 -2 -14 -1 -18 1 -5 -4 -5 -11 0 -23 13 -58
14 -60 1 0 -7 -2 -20 -2 -28 -1 -8 4 -26 12 -40 12 -22 12 -23 0 -8 -13 15
-14 7 -15 -65 0 -70 1 -78 13 -62 7 10 11 22 8 26 -3 5 -7 18 -9 28 -3 15 1
19 15 16 13 -2 19 4 23 21 4 23 3 23 -13 9 -9 -8 -21 -15 -26 -15 -5 0 -4 4 1
8 15 11 42 47 29 39 -6 -3 -11 0 -11 8 0 8 3 13 5 10 3 -3 12 1 21 8 14 10 14
10 3 -5 -8 -9 -9 -19 -4 -22 15 -9 24 25 10 41 -9 11 -9 13 1 11 15 -4 43 79
30 88 -5 3 -9 13 -8 22 0 14 2 13 9 -3 7 -19 8 -19 15 -2 4 10 8 31 9 47 0 17
4 30 9 30 5 0 7 8 5 18 -1 9 1 23 6 30 9 15 -12 45 -25 36 -5 -3 -8 8 -7 25 1
17 8 33 15 35 7 3 10 -1 7 -8 -3 -8 0 -17 6 -21 18 -11 24 3 12 30 -8 17 -20
25 -37 25 -14 0 -25 -1 -26 -2z"/>
<path d="M9304 25051 c3 -4 -1 -17 -9 -27 -20 -27 -18 -44 5 -44 19 0 24 12
22 50 0 11 3 10 14 -4 11 -16 11 -22 1 -35 -8 -10 -9 -13 0 -8 7 4 18 -2 27
-15 9 -12 16 -17 16 -11 0 7 7 10 16 6 15 -5 15 -7 0 -15 -14 -8 -15 -12 -4
-26 11 -14 10 -14 -8 1 -17 14 -21 14 -21 2 0 -8 7 -17 15 -20 17 -6 44 13 36
26 -3 5 2 6 11 2 13 -5 14 -7 3 -14 -11 -7 -10 -11 2 -19 8 -5 15 -24 15 -42
0 -31 2 -33 35 -33 42 0 48 -13 45 -102 -2 -53 0 -62 14 -61 40 3 72 -3 66
-12 -3 -5 -2 -10 2 -10 5 0 18 -7 29 -15 14 -11 15 -14 2 -9 -16 5 -16 2 -9
-35 1 -2 9 3 18 10 11 10 14 10 9 2 -4 -7 -2 -13 3 -13 6 0 11 5 11 10 0 21
-39 85 -59 97 -12 8 -18 19 -15 28 4 8 -7 27 -25 45 -16 17 -31 34 -32 38 -3
20 -35 62 -47 62 -7 0 -10 4 -7 10 3 6 -1 7 -10 4 -11 -5 -14 -2 -8 12 4 11 3
15 -5 10 -6 -3 -13 -2 -17 4 -3 5 0 10 7 10 7 0 -4 16 -25 36 -21 19 -43 32
-49 28 -8 -5 -9 -2 -5 10 4 10 3 15 -3 11 -6 -3 -10 0 -10 8 0 7 -10 23 -23
35 -23 22 -43 30 -33 13z"/>
<path d="M11425 19723 c5 -176 95 -4763 95 -4855 l0 -31 -252 8 c-349 12 -382
12 -410 -3 -47 -25 -60 -65 -71 -211 -19 -263 -13 -2642 8 -3086 2 -49 7 -166
10 -260 7 -227 17 -419 21 -426 1 -3 21 -11 43 -19 37 -12 51 -9 273 54 860
243 1657 343 2535 316 284 -9 463 -20 463 -27 0 -3 -24 -44 -53 -91 -183 -296
-303 -541 -381 -775 -161 -487 -112 -983 133 -1352 102 -153 319 -335 502
-419 184 -85 397 -140 616 -159 l135 -11 -2 -251 c-7 -649 0 -1866 11 -1859 6
3 61 23 122 44 l112 38 5 1015 c3 559 7 1017 10 1019 3 3 59 12 125 22 114 16
300 57 353 77 24 9 23 12 -65 102 -106 108 -192 223 -261 345 -66 117 -87 165
-133 310 -135 424 -143 843 -25 1319 82 330 239 685 495 1118 62 105 113 192
114 195 4 11 -137 257 -196 343 -33 48 -91 124 -129 168 l-69 80 10 747 c7
411 16 856 21 988 13 318 13 731 -1 852 -22 202 -73 380 -155 544 -24 48 -102
185 -172 305 -71 120 -320 580 -553 1023 l-424 805 0 795 c0 848 -2 885 -50
1078 -40 157 -110 262 -204 306 -46 21 -47 21 -1329 24 l-1283 2 6 -207z
m1692 -696 l28 -27 3 -183 c4 -195 -2 -232 -41 -246 -13 -5 -120 -3 -262 5
-161 10 -322 13 -490 9 -277 -7 -322 -1 -377 51 -100 97 -14 278 158 330 32 9
97 14 205 14 128 0 184 5 296 26 242 46 296 53 375 51 70 -2 80 -5 105 -30z
m-49 -710 c30 -36 21 -463 -11 -494 -12 -12 -30 -13 -108 -4 -195 22 -404 32
-692 30 -211 -1 -301 2 -311 10 -10 8 -16 50 -21 135 -12 204 15 272 115 295
25 5 146 13 270 16 124 4 279 10 345 14 217 13 401 12 413 -2z m-138 -659 c58
-5 113 -15 124 -20 17 -9 18 -23 15 -208 -2 -109 -7 -201 -11 -205 -3 -4 -230
-18 -503 -32 -467 -23 -497 -24 -515 -8 -42 38 -66 267 -36 338 31 74 87 100
258 123 252 33 432 36 668 12z m-1595 -3323 c39 -3 94 -13 122 -21 77 -21 88
-47 78 -182 -7 -116 -15 -146 -41 -156 -28 -11 -224 -28 -249 -22 -12 3 -27
18 -34 33 -11 29 -32 342 -24 356 3 5 21 6 42 3 20 -3 68 -8 106 -11z m85
-557 c60 -31 88 -83 96 -179 5 -55 3 -83 -9 -111 -25 -59 -60 -71 -216 -76
l-133 -4 4 173 c2 115 8 182 16 197 12 20 20 22 105 22 76 0 101 -4 137 -22z
m16 -557 c51 -23 71 -64 80 -157 8 -83 -9 -175 -36 -199 -18 -16 -29 -17 -132
-7 -61 7 -117 17 -122 22 -12 12 -15 313 -3 343 9 25 155 24 213 -2z m57 -589
l27 -12 -1 -102 c0 -133 -13 -256 -28 -271 -19 -19 -252 -29 -270 -12 -17 17
-28 235 -17 338 7 64 8 66 39 70 55 8 221 1 250 -11z m3092 -82 c171 -11 325
-23 343 -26 l33 -5 -55 -60 c-65 -70 -196 -264 -291 -431 l-67 -118 -131 0
c-73 0 -149 3 -170 6 l-37 7 5 76 c19 273 35 516 35 541 0 17 5 30 13 30 6 0
152 -9 322 -20z m-158 -864 c5 -5 -142 -282 -187 -353 l-31 -48 5 70 c3 39 8
113 11 165 3 52 8 115 11 139 l6 44 90 -6 c50 -3 92 -8 95 -11z"/>
<path d="M16142 18352 c-22 -15 -76 -425 -106 -812 -26 -319 -35 -532 -45
-975 -11 -471 -12 -3698 -2 -4270 l6 -370 106 170 c106 170 182 307 339 610
251 485 440 802 586 986 l52 66 -186 6 c-103 4 -240 7 -304 7 -88 0 -118 3
-118 13 0 40 40 531 44 534 2 2 138 -5 303 -16 165 -12 309 -21 321 -21 22 0
22 -1 22 -215 l0 -215 62 50 c59 47 107 76 169 99 31 11 35 27 45 194 l6 117
27 0 c14 0 157 -9 316 -20 160 -11 293 -20 298 -20 4 0 7 -117 7 -260 0 -231
-2 -260 -16 -260 -10 0 7 -26 48 -72 94 -107 127 -151 211 -276 l75 -112 6
172 c30 896 45 2710 27 3173 -14 339 -34 558 -63 664 -41 153 -48 200 -57 416
-13 280 -32 361 -100 418 -51 42 -343 148 -517 188 -149 33 -344 30 -707 -11
l-288 -32 -51 22 c-27 12 -82 28 -122 35 -90 17 -376 30 -394 17z m1651 -1569
l297 -17 0 -258 0 -258 -338 0 c-186 0 -341 2 -343 4 -5 5 30 523 36 544 3 7
14 11 27 8 13 -3 157 -13 321 -23z"/>
<path d="M26705 12859 c-642 -63 -1224 -329 -1920 -878 -415 -327 -917 -829
-1360 -1361 -160 -193 -497 -624 -528 -676 -3 -6 16 -66 43 -133 97 -238 160
-460 147 -513 -6 -23 -13 -26 -79 -31 -40 -4 -191 -10 -334 -13 l-262 -7 -108
-170 c-60 -94 -110 -174 -112 -177 -1 -4 66 -10 150 -14 253 -11 666 -55 773
-82 20 -5 23 0 34 56 38 192 215 602 343 794 79 118 68 114 313 127 237 13
1183 6 1253 -9 50 -11 80 -36 132 -112 151 -221 389 -832 378 -967 -3 -35 -5
-38 -43 -45 -35 -6 -820 -27 -1023 -28 l-73 0 2 -82 c3 -101 4 -105 36 -113
14 -3 119 -46 232 -94 503 -216 939 -452 1401 -760 113 -75 208 -137 213 -139
4 -2 7 47 8 110 0 62 4 181 9 263 4 83 7 151 6 153 -2 1 -114 6 -249 11 -217
7 -250 10 -267 26 -59 54 14 154 217 297 57 40 162 115 234 166 612 436 1186
782 1881 1137 175 89 341 180 370 202 76 57 111 73 163 73 62 0 86 -12 270
-132 88 -58 410 -268 715 -468 305 -200 635 -416 733 -480 l178 -117 -32 -39
c-57 -71 -72 -111 -67 -178 4 -56 7 -62 50 -101 39 -35 66 -48 146 -71 8 -2
-27 -53 -90 -130 -57 -70 -129 -159 -161 -198 -118 -146 -169 -252 -170 -356
-3 -158 105 -261 311 -297 68 -12 132 -14 287 -10 l200 6 4 -397 c9 -897 7
-1006 -16 -1137 -27 -146 -63 -259 -110 -344 -59 -106 -47 -101 -245 -101 -95
0 -332 -3 -526 -7 -351 -6 -352 -6 -346 -27 25 -91 50 -103 153 -76 75 19 118
16 162 -13 24 -16 29 -22 72 -87 12 -19 47 -48 77 -65 l55 -30 305 5 304 5 14
46 15 47 172 23 173 22 7 151 c4 83 5 562 3 1064 l-3 912 178 0 177 0 1 -412
c1 -566 0 -711 -6 -873 -3 -77 -7 -221 -10 -320 -5 -184 -13 -333 -20 -417 -2
-27 -2 -48 0 -48 3 0 69 14 148 30 296 63 623 161 822 247 l110 48 3 468 2
467 133 0 c72 0 204 5 292 11 88 5 248 14 355 19 199 9 248 17 310 52 166 92
94 352 -195 703 -44 53 -81 100 -83 105 -2 4 14 11 35 15 52 9 110 41 124 67
6 12 12 38 13 59 l1 37 160 7 c88 3 219 11 290 16 72 5 258 14 415 19 157 5
310 14 341 19 177 30 280 88 332 186 29 55 36 206 13 294 -52 204 -221 478
-484 786 l-103 120 33 9 c198 51 258 104 258 226 0 160 -160 380 -484 665 -44
39 -99 88 -124 109 l-44 40 77 39 c178 89 265 255 225 428 -20 86 -301 670
-432 898 -267 464 -495 665 -664 585 -83 -40 -188 -202 -376 -584 -288 -586
-330 -670 -384 -760 -134 -224 -177 -375 -142 -494 17 -57 73 -109 134 -125
27 -7 57 -15 67 -18 13 -3 -44 -68 -237 -266 -246 -254 -303 -316 -337 -367
-16 -24 -16 -23 -38 48 -32 108 -286 607 -382 752 -88 133 -200 255 -261 283
-74 35 -153 17 -200 -45 -39 -52 -124 -200 -190 -332 -33 -66 -63 -123 -65
-126 -3 -3 -13 6 -22 19 -41 63 -218 294 -356 466 -549 685 -1197 1298 -1790
1692 -450 300 -938 522 -1390 633 -296 73 -646 110 -850 89z m5522 -3788 c35
-47 102 -89 176 -113 39 -12 74 -23 76 -25 2 -1 -27 -39 -64 -85 -38 -46 -70
-85 -72 -87 -2 -3 -54 45 -116 105 -61 61 -138 132 -170 159 l-58 48 60 29
c33 15 72 43 88 61 l28 33 17 -49 c9 -27 25 -61 35 -76z"/>
<path d="M4755 12716 c-17 -7 -43 -27 -57 -44 -24 -29 -26 -39 -32 -174 -11
-227 -12 -1262 -2 -1618 5 -179 6 -396 1 -482 l-7 -158 -22 15 c-45 32 -413
405 -503 510 -52 61 -109 118 -126 128 -41 24 -113 18 -155 -12 -39 -27 -67
-97 -58 -146 13 -70 230 -309 613 -674 l241 -231 6 -302 c3 -167 9 -661 12
-1098 l6 -796 145 31 146 30 -9 915 c-10 1018 -8 1506 6 1745 6 88 10 225 11
305 l0 145 147 135 c464 429 662 654 662 754 0 73 -71 146 -143 146 -66 0
-101 -25 -168 -118 -57 -81 -488 -522 -509 -522 -14 0 -16 203 -6 813 7 439 6
587 -3 617 -22 76 -123 120 -196 86z"/>
<path d="M17470 12634 c-43 -19 -77 -50 -97 -89 -14 -26 -15 -103 -7 -700 8
-606 7 -1114 -2 -1124 -5 -6 -331 298 -434 405 -89 93 -155 172 -257 307 -50
67 -79 87 -132 94 -84 11 -160 -27 -198 -101 -25 -48 -21 -126 10 -178 83
-142 291 -376 533 -598 98 -91 238 -222 311 -292 72 -71 136 -128 142 -128 7
0 8 -31 4 -92 -3 -51 2 -248 11 -438 20 -428 22 -753 12 -2312 l-8 -1238 29 0
c33 0 55 18 116 93 43 53 122 103 179 112 l38 7 0 656 c0 362 7 891 15 1177 8
286 15 585 16 665 l1 145 190 180 c458 433 808 800 863 905 36 68 19 165 -37
217 -87 81 -203 66 -288 -38 -121 -148 -291 -328 -499 -530 -127 -123 -235
-225 -239 -227 -17 -5 -32 534 -22 778 29 721 30 773 20 1245 -5 264 -10 584
-10 710 0 131 -5 246 -11 268 -29 106 -149 164 -249 121z"/>
<path d="M6264 11451 c-118 -55 -224 -202 -447 -623 -68 -128 -173 -312 -232
-408 -182 -292 -286 -521 -331 -730 -28 -127 -25 -395 5 -505 103 -381 396
-626 823 -689 58 -9 123 -16 144 -16 l39 0 -3 -285 c-4 -328 -19 -293 112
-274 l76 11 2 276 3 276 95 13 c156 22 330 76 450 139 191 100 316 265 372
489 28 117 31 360 4 503 -75 410 -385 1159 -634 1537 -158 240 -342 350 -478
286z"/>
<path d="M19344 11304 c-21 -5 -19 -11 43 -202 146 -449 217 -736 248 -1007
17 -146 22 -412 10 -531 -16 -169 -65 -390 -105 -479 -10 -22 -30 -69 -45
-105 -92 -221 -295 -470 -482 -593 -105 -68 -265 -154 -361 -193 -170 -68
-426 -142 -609 -174 -46 -8 -73 -18 -73 -26 0 -7 12 -50 26 -96 71 -225 190
-397 368 -530 177 -132 479 -241 797 -287 l124 -17 3 -542 2 -541 70 6 70 6
51 -53 c33 -34 54 -49 60 -43 7 7 9 217 7 585 l-3 575 103 7 c412 27 786 185
1023 433 169 177 272 386 325 658 28 140 25 433 -4 590 -43 226 -109 404 -251
680 -100 193 -130 246 -308 530 -55 88 -137 232 -183 320 -288 556 -415 762
-560 905 -96 96 -150 123 -250 126 -41 1 -84 0 -96 -2z"/>
<path d="M45230 9898 c-18 -13 -42 -40 -53 -61 -19 -38 -20 -59 -18 -910 4
-1395 3 -1549 -7 -1559 -11 -11 -393 360 -507 493 -44 52 -100 114 -124 139
-25 25 -67 78 -94 118 -73 108 -150 187 -213 218 -47 23 -64 26 -117 22 -89
-7 -156 -45 -253 -142 -106 -107 -172 -211 -319 -500 -177 -352 -276 -595
-390 -961 -81 -262 -107 -419 -100 -605 5 -121 16 -185 51 -290 l26 -75 171 0
c191 0 266 -12 447 -70 213 -68 446 -192 653 -347 43 -32 84 -58 91 -58 35 0
199 55 275 93 157 76 274 178 370 321 l46 69 3 -626 2 -627 74 -112 c41 -62
106 -169 146 -238 l72 -125 -5 1560 c-4 1258 -3 1619 9 1865 8 168 11 335 8
371 l-6 66 93 90 c52 49 166 156 254 237 238 220 443 451 481 543 31 73 0 159
-70 192 -92 45 -141 24 -237 -105 -89 -119 -200 -237 -384 -407 l-139 -129 -9
28 c-4 16 -5 299 0 629 11 817 11 804 -9 842 -39 71 -150 97 -218 51z"/>
<path d="M24105 8555 l210 -70 3 64 c2 35 2 65 0 66 -2 2 -97 5 -213 7 l-210
3 210 -70z"/>
<path d="M11680 7270 c0 -18 60 -131 103 -195 22 -33 72 -91 109 -129 l69 -69
-78 -79 c-89 -91 -242 -218 -346 -286 -56 -38 -66 -48 -50 -52 11 -3 33 -21
49 -40 43 -52 64 -69 122 -96 135 -65 323 -30 454 85 25 23 49 41 53 41 3 0
69 -127 145 -282 119 -241 139 -288 135 -318 -3 -19 -2 -94 2 -166 l8 -131
-205 -12 c-307 -18 -311 -19 -291 -50 8 -12 38 -12 197 -2 104 6 215 14 247
18 111 11 87 -12 -270 -268 -181 -128 -375 -267 -433 -307 -58 -41 -106 -75
-108 -77 -2 -1 0 -14 3 -28 7 -26 8 -25 113 52 59 42 172 124 252 181 80 57
225 163 322 235 l176 132 6 -91 c3 -50 7 -121 9 -157 l3 -67 -68 -12 c-135
-24 -234 -95 -284 -204 -99 -216 -13 -533 177 -656 216 -140 577 -28 690 214
73 155 20 353 -134 509 -68 68 -164 118 -260 137 l-63 12 -18 296 c-9 163 -19
322 -22 352 l-6 55 54 17 c52 16 53 16 70 -5 16 -21 16 -23 0 -35 -9 -7 -29
-16 -44 -19 -24 -5 -26 -8 -21 -42 3 -20 12 -44 21 -53 23 -27 78 -42 110 -30
15 6 45 13 67 17 59 10 92 31 104 66 15 43 -1 99 -40 144 -25 28 -38 35 -68
35 -20 0 -42 5 -49 12 -9 9 -16 8 -29 -4 -28 -24 -64 -32 -74 -17 -16 26 -9
39 28 54 l36 15 -25 28 c-30 31 -75 118 -117 224 -25 64 -46 133 -91 306 l-11
43 -20 -25 c-26 -34 -47 -33 -60 1 -8 22 -7 34 5 55 20 32 20 68 2 112 -36 86
-128 145 -240 153 -85 6 -129 13 -122 20 3 4 -25 38 -62 77 -76 79 -133 159
-181 254 -28 56 -51 79 -51 52z m821 -2400 c9 -69 20 -142 24 -162 9 -46 -3
-49 -34 -7 -13 17 -64 78 -113 136 -49 57 -88 106 -86 107 28 25 126 56 168
53 24 -2 25 -6 41 -127z m184 99 c134 -50 230 -183 241 -333 11 -158 -92 -284
-273 -331 -31 -8 -61 -15 -65 -15 -4 0 -9 30 -10 68 l-2 67 -3 -69 -4 -69 -77
5 c-46 3 -91 12 -112 22 -41 21 -90 65 -89 80 0 6 49 46 109 89 89 63 114 76
135 71 20 -5 25 -13 27 -38 l1 -31 4 33 c3 19 10 32 19 32 11 0 71 -69 158
-185 9 -11 16 -17 16 -14 0 4 -34 51 -75 105 -41 54 -73 105 -70 112 3 8 5 18
5 23 0 5 57 10 128 11 l127 2 -127 3 c-103 3 -128 6 -128 18 0 8 54 53 120
101 66 47 120 88 120 91 0 5 -21 -9 -152 -104 -48 -35 -92 -63 -98 -63 -17 0
-44 127 -58 268 l-8 84 45 -7 c25 -4 68 -15 96 -26z m-300 -156 c54 -65 104
-125 112 -134 10 -12 10 -21 0 -42 l-12 -27 -151 0 -151 0 -6 48 c-6 58 6 139
28 184 18 34 64 88 75 88 4 0 51 -53 105 -117z m110 -235 c0 -19 -202 -171
-219 -165 -12 4 -72 122 -81 160 l-7 28 153 -3 c139 -3 154 -5 154 -20z"/>
<path d="M12378 7160 c-3 -16 -2 -30 2 -30 3 0 12 -33 18 -74 7 -40 16 -77 20
-80 4 -4 14 -28 23 -54 13 -40 14 -51 1 -86 -16 -48 -8 -124 14 -133 23 -9 25
1 9 34 -22 45 -4 116 51 200 44 67 62 109 51 120 -3 3 -13 -11 -21 -31 -8 -20
-29 -57 -47 -83 -28 -41 -33 -44 -40 -27 -12 34 -41 185 -36 191 3 2 28 -6 56
-18 29 -12 55 -18 59 -14 13 13 -121 115 -151 115 -3 0 -7 -13 -9 -30z"/>
<path d="M12650 7025 c0 -33 183 -154 215 -141 20 7 19 47 -2 91 l-17 35 -63
-6 c-56 -6 -68 -4 -93 15 -35 25 -40 26 -40 6z"/>
<path d="M11398 6428 c-44 -24 -71 -31 -115 -32 l-58 -1 -18 -60 c-10 -33 -23
-75 -28 -93 -28 -90 -29 -227 -2 -297 5 -15 -1 -16 -42 -13 -37 2 -50 -1 -59
-14 -21 -34 4 -53 75 -56 62 -4 65 -5 95 -46 37 -50 47 -79 73 -205 l20 -93
-88 -107 c-48 -58 -134 -166 -190 -238 -57 -73 -105 -133 -108 -133 -3 0 -37
16 -77 35 -240 119 -553 24 -637 -193 -32 -82 -32 -211 0 -312 74 -242 256
-385 463 -366 134 12 257 74 352 176 71 77 108 155 114 242 l5 67 76 6 c42 3
98 8 125 12 l50 5 -17 -25 c-45 -69 12 -159 92 -147 21 3 31 -20 31 -77 0 -80
3 -83 74 -83 69 0 103 16 93 45 -6 14 -15 16 -66 10 l-58 -7 -5 63 c-4 54 -1
68 19 97 13 19 23 43 23 54 0 24 -27 88 -37 88 -4 0 -15 5 -23 10 -13 9 -11
13 10 29 l24 19 -37 7 c-24 5 -42 3 -52 -5 -12 -10 -15 -9 -15 5 0 9 -10 30
-22 45 -13 15 -27 35 -33 43 -10 17 -121 50 -136 41 -24 -14 -4 -32 52 -45
l61 -14 24 -59 c13 -33 23 -60 21 -61 -1 -1 -66 -5 -144 -9 -118 -5 -143 -4
-143 8 0 29 -72 154 -119 207 l-50 56 42 55 c23 30 102 134 176 232 74 97 135
175 137 174 1 -2 15 -89 29 -193 30 -221 34 -238 54 -225 13 7 13 29 -3 162
-28 239 -29 248 -19 248 5 0 17 -22 27 -49 12 -33 24 -51 39 -55 29 -8 182 -7
230 0 36 7 37 7 37 52 0 34 -6 52 -22 70 l-23 24 30 24 c17 14 58 42 93 62 34
20 62 42 62 49 0 7 -30 72 -67 143 l-68 130 -4 120 -3 120 29 0 c32 0 113 38
153 71 20 17 21 20 5 14 -41 -14 -184 -18 -232 -6 -138 35 -285 165 -243 216
16 19 16 19 -52 -17z m-625 -1413 c37 -8 80 -22 96 -31 l28 -16 -90 -134 c-58
-87 -94 -131 -102 -127 -8 2 -28 -4 -45 -14 -24 -13 -30 -24 -27 -40 2 -13 -1
-23 -7 -23 -6 0 0 -7 12 -16 23 -16 23 -16 -75 -122 l-97 -107 100 98 c77 75
106 97 127 97 19 0 27 -5 28 -17 1 -13 3 -11 7 5 4 13 10 24 14 25 9 3 198
-172 198 -184 0 -10 -90 -58 -132 -70 -19 -5 -28 -4 -28 4 0 6 -6 3 -12 -6 -9
-12 -35 -19 -88 -23 -64 -6 -83 -3 -126 15 -61 26 -130 94 -179 176 l-36 60
23 7 c22 6 22 6 -3 7 -23 1 -28 7 -38 45 -19 76 -14 165 13 222 13 28 29 55
35 59 7 4 61 -35 128 -92 123 -103 153 -127 153 -120 0 3 -105 93 -240 206
l-25 21 34 30 c37 31 152 75 175 67 7 -3 17 -22 20 -42 4 -20 10 -35 12 -32 3
3 1 21 -4 41 -7 25 -7 36 1 40 23 9 83 5 150 -9z m239 -171 c28 -41 55 -111
46 -119 -4 -4 -269 -34 -275 -31 -7 4 182 196 191 193 6 -2 23 -21 38 -43z
m58 -212 c0 -55 -43 -153 -84 -191 l-25 -24 -33 28 c-90 75 -168 156 -168 175
0 24 12 27 156 45 167 20 154 23 154 -33z"/>
<path d="M28225 6285 c-14 -13 -25 -36 -25 -50 0 -32 41 -75 72 -75 41 0 68
27 68 68 0 78 -64 109 -115 57z"/>
<path d="M40413 3043 c-32 -98 -100 -176 -191 -219 -50 -25 -69 -28 -152 -29
-82 0 -103 4 -151 26 -66 31 -142 96 -135 115 3 8 0 13 -6 11 -6 -1 -23 22
-37 51 l-25 52 -163 0 c-189 0 -181 7 -139 -112 54 -153 177 -288 331 -364
106 -52 198 -74 315 -74 118 0 209 22 315 74 183 90 323 268 358 454 l7 32
-161 0 c-143 0 -160 -2 -166 -17z"/>
<path d="M35651 3033 l-123 -4 6 -42 c3 -23 27 -84 52 -135 163 -334 582 -467
930 -296 186 91 313 253 358 457 l6 27 -160 0 c-144 0 -161 -2 -167 -17 -61
-184 -257 -290 -439 -239 -114 33 -201 110 -240 212 -16 43 -18 44 -58 42 -22
-1 -97 -4 -165 -5z"/>
</g>
</svg>
