<svg width="75" height="75" viewBox="0 0 75 75" fill="none" xmlns="http://www.w3.org/2000/svg">
<circle cx="37.5" cy="37.5" r="37.5" fill="#AFDCFC"/>
<path d="M37.5 19.5C27.1424 19.5 18.75 27.8924 18.75 38.25C18.75 48.6076 27.1424 57 37.5 57C47.8576 57 56.25 48.6076 56.25 38.25C56.25 27.8924 47.8576 19.5 37.5 19.5ZM21.274 38.25C21.274 33.9141 22.9597 29.8395 26.0246 26.7746C29.0895 23.7097 33.1641 22.024 37.5 22.024C41.8359 22.024 45.9105 23.7097 48.9754 26.7746C51.878 29.6773 53.5457 33.4904 53.7169 37.5649C52.9237 36.6364 51.5355 35.4014 49.7686 35.4014C47.2897 35.4014 46.0096 37.7181 45.1713 39.2506C45.0451 39.476 44.9279 39.6923 44.8197 39.8816C43.7921 41.6124 42.3588 42.5859 40.9886 42.4868C39.7807 42.4056 38.753 41.4772 38.0859 39.8906C37.2566 37.8984 35.4627 35.762 33.3173 35.4555C32.2987 35.3113 30.7843 35.5276 29.2879 37.3846C28.9994 37.7452 28.6659 38.232 28.2873 38.7909C27.3498 40.1881 25.9255 42.2885 24.8528 42.4688C23.2933 42.7212 22.0673 41.7927 21.5715 41.36C21.3732 40.3504 21.274 39.3047 21.274 38.25Z" fill="#0088EB"/>
</svg>
