<svg width="800" height="518" viewBox="0 0 800 518" fill="none" xmlns="http://www.w3.org/2000/svg">
<mask id="mask0" mask-type="alpha" maskUnits="userSpaceOnUse" x="38" y="0" width="720" height="518">
<path d="M748 0H48C42.4772 0 38 4.47715 38 10V508C38 513.523 42.4772 518 48 518H748C753.523 518 758 513.523 758 508V10C758 4.47715 753.523 0 748 0Z" fill="white"/>
</mask>
<g mask="url(#mask0)">
<g opacity="0.99">
<path opacity="0.99" d="M748 0H48C42.4772 0 38 4.47715 38 10V508C38 513.523 42.4772 518 48 518H748C753.523 518 758 513.523 758 508V10C758 4.47715 753.523 0 748 0Z" fill="#383E40"/>
<path opacity="0.99" d="M748 0H48C42.4772 0 38 4.47715 38 10V508C38 513.523 42.4772 518 48 518H748C753.523 518 758 513.523 758 508V10C758 4.47715 753.523 0 748 0Z" fill="url(#paint0_linear)"/>
</g>
<path d="M165 203H98V488H165V203Z" fill="#6E7880"/>
<path d="M272 125H205V489H272V125Z" fill="#6E7880"/>
<path d="M379 161H312V488H379V161Z" fill="#6E7880"/>
<path d="M486 277H419V488H486V277Z" fill="#6E7880"/>
<path d="M593 101H526V488H593V101Z" fill="#6E7880"/>
<path d="M700 148H633V488H700V148Z" fill="#6E7880"/>
<path d="M45.8596 445.248C46.5999 447.532 47 449.969 47 452.5C47 465.479 36.4787 476 23.5 476C10.5213 476 0 465.479 0 452.5C0 439.521 10.5213 429 23.5 429C26.5623 429 29.4878 429.586 32.1706 430.651L108.052 364.078C108.018 363.556 108 363.03 108 362.5C108 349.521 118.521 339 131.5 339C144.479 339 155 349.521 155 362.5C155 363.774 154.899 365.025 154.703 366.245L228.678 431.145C231.666 429.768 234.994 429 238.5 429C239.691 429 240.862 429.089 242.006 429.26L323.089 322.555C323.03 321.878 323 321.192 323 320.5C323 307.521 333.521 297 346.5 297C359.479 297 370 307.521 370 320.5C370 321.008 369.984 321.512 369.952 322.012L442.582 393.189C445.596 391.784 448.956 391 452.5 391C453.748 391 454.973 391.097 456.168 391.285L539.012 268.343C538.354 266.178 538 263.88 538 261.5C538 248.521 548.521 238 561.5 238C571.705 238 580.39 244.505 583.637 253.594L648.256 271.687C652.564 266.386 659.137 263 666.5 263C667.989 263 669.447 263.139 670.859 263.404L753.912 151.005C753.318 148.939 753 146.757 753 144.5C753 131.521 763.521 121 776.5 121C789.479 121 800 131.521 800 144.5C800 157.479 789.479 168 776.5 168C773.324 168 770.295 167.37 767.531 166.228L687.067 275.123C688.936 278.494 690 282.373 690 286.5C690 299.479 679.479 310 666.5 310C655.1 310 645.595 301.882 643.452 291.111L581.542 273.776C577.41 280.509 569.979 285 561.5 285C558.494 285 555.62 284.436 552.978 283.407L472.718 402.514C474.803 406.023 476 410.122 476 414.5C476 427.479 465.479 438 452.5 438C439.521 438 429 427.479 429 414.5C429 412.466 429.258 410.493 429.744 408.611L359.687 339.954C355.927 342.508 351.388 344 346.5 344C342.091 344 337.966 342.786 334.44 340.674L258.654 440.408C260.778 443.94 262 448.077 262 452.5C262 465.479 251.479 476 238.5 476C225.521 476 215 465.479 215 452.5C215 450.406 215.274 448.375 215.788 446.443L143.287 382.835C139.822 384.847 135.796 386 131.5 386C126.537 386 121.932 384.461 118.139 381.835L45.8596 445.248Z" fill="url(#paint1_linear)"/>
</g>
<path d="M45.8596 425.248C46.5999 427.532 47 429.969 47 432.5C47 445.479 36.4787 456 23.5 456C10.5213 456 0 445.479 0 432.5C0 419.521 10.5213 409 23.5 409C26.5623 409 29.4878 409.586 32.1706 410.651L108.052 344.078C108.018 343.556 108 343.03 108 342.5C108 329.521 118.521 319 131.5 319C144.479 319 155 329.521 155 342.5C155 343.774 154.899 345.025 154.703 346.245L228.678 411.145C231.666 409.768 234.994 409 238.5 409C239.691 409 240.862 409.089 242.006 409.26L323.089 302.555C323.03 301.878 323 301.192 323 300.5C323 287.521 333.521 277 346.5 277C359.479 277 370 287.521 370 300.5C370 301.008 369.984 301.512 369.952 302.012L442.582 373.189C445.596 371.784 448.956 371 452.5 371C453.748 371 454.973 371.097 456.168 371.285L539.012 248.343C538.354 246.178 538 243.88 538 241.5C538 228.521 548.521 218 561.5 218C571.705 218 580.39 224.505 583.637 233.594L648.256 251.687C652.564 246.386 659.137 243 666.5 243C667.989 243 669.447 243.139 670.859 243.404L753.912 131.005C753.318 128.939 753 126.757 753 124.5C753 111.521 763.521 101 776.5 101C789.479 101 800 111.521 800 124.5C800 137.479 789.479 148 776.5 148C773.324 148 770.295 147.37 767.531 146.228L687.067 255.123C688.936 258.494 690 262.373 690 266.5C690 279.479 679.479 290 666.5 290C655.1 290 645.595 281.882 643.452 271.111L581.542 253.776C577.41 260.509 569.979 265 561.5 265C558.494 265 555.62 264.436 552.978 263.407L472.718 382.514C474.803 386.023 476 390.122 476 394.5C476 407.479 465.479 418 452.5 418C439.521 418 429 407.479 429 394.5C429 392.466 429.258 390.493 429.744 388.611L359.687 319.954C355.927 322.508 351.388 324 346.5 324C342.091 324 337.966 322.786 334.44 320.674L258.654 420.408C260.778 423.94 262 428.077 262 432.5C262 445.479 251.479 456 238.5 456C225.521 456 215 445.479 215 432.5C215 430.406 215.274 428.375 215.788 426.443L143.287 362.835C139.822 364.847 135.796 366 131.5 366C126.537 366 121.932 364.461 118.139 361.835L45.8596 425.248Z" fill="#F49D20"/>
<path d="M45.8596 425.248C46.5999 427.532 47 429.969 47 432.5C47 445.479 36.4787 456 23.5 456C10.5213 456 0 445.479 0 432.5C0 419.521 10.5213 409 23.5 409C26.5623 409 29.4878 409.586 32.1706 410.651L108.052 344.078C108.018 343.556 108 343.03 108 342.5C108 329.521 118.521 319 131.5 319C144.479 319 155 329.521 155 342.5C155 343.774 154.899 345.025 154.703 346.245L228.678 411.145C231.666 409.768 234.994 409 238.5 409C239.691 409 240.862 409.089 242.006 409.26L323.089 302.555C323.03 301.878 323 301.192 323 300.5C323 287.521 333.521 277 346.5 277C359.479 277 370 287.521 370 300.5C370 301.008 369.984 301.512 369.952 302.012L442.582 373.189C445.596 371.784 448.956 371 452.5 371C453.748 371 454.973 371.097 456.168 371.285L539.012 248.343C538.354 246.178 538 243.88 538 241.5C538 228.521 548.521 218 561.5 218C571.705 218 580.39 224.505 583.637 233.594L648.256 251.687C652.564 246.386 659.137 243 666.5 243C667.989 243 669.447 243.139 670.859 243.404L753.912 131.005C753.318 128.939 753 126.757 753 124.5C753 111.521 763.521 101 776.5 101C789.479 101 800 111.521 800 124.5C800 137.479 789.479 148 776.5 148C773.324 148 770.295 147.37 767.531 146.228L687.067 255.123C688.936 258.494 690 262.373 690 266.5C690 279.479 679.479 290 666.5 290C655.1 290 645.595 281.882 643.452 271.111L581.542 253.776C577.41 260.509 569.979 265 561.5 265C558.494 265 555.62 264.436 552.978 263.407L472.718 382.514C474.803 386.023 476 390.122 476 394.5C476 407.479 465.479 418 452.5 418C439.521 418 429 407.479 429 394.5C429 392.466 429.258 390.493 429.744 388.611L359.687 319.954C355.927 322.508 351.388 324 346.5 324C342.091 324 337.966 322.786 334.44 320.674L258.654 420.408C260.778 423.94 262 428.077 262 432.5C262 445.479 251.479 456 238.5 456C225.521 456 215 445.479 215 432.5C215 430.406 215.274 428.375 215.788 426.443L143.287 362.835C139.822 364.847 135.796 366 131.5 366C126.537 366 121.932 364.461 118.139 361.835L45.8596 425.248Z" fill="url(#paint2_linear)"/>
<defs>
<linearGradient id="paint0_linear" x1="398" y1="0" x2="398" y2="518" gradientUnits="userSpaceOnUse">
<stop stop-color="#4E565C" stop-opacity="0"/>
<stop offset="1" stop-opacity="0.1"/>
</linearGradient>
<linearGradient id="paint1_linear" x1="400" y1="121" x2="400" y2="476" gradientUnits="userSpaceOnUse">
<stop stop-opacity="0.2"/>
<stop offset="1" stop-opacity="0"/>
</linearGradient>
<linearGradient id="paint2_linear" x1="400" y1="101" x2="400" y2="456" gradientUnits="userSpaceOnUse">
<stop stop-color="#FF6663" stop-opacity="0"/>
<stop offset="1" stop-opacity="0.04"/>
</linearGradient>
</defs>
</svg>
