<svg width="750" height="639" viewBox="0 0 750 639" fill="none" xmlns="http://www.w3.org/2000/svg">
<mask id="mask0" mask-type="alpha" maskUnits="userSpaceOnUse" x="0" y="99" width="750" height="540">
<path d="M25.3687 115.036L128 99L256 119H720C736.569 119 750 132.431 750 149V609C750 625.569 736.569 639 720 639H256L128 619L34.6313 633.589C18.2614 636.147 2.91744 624.95 0.359639 608.58C0.12024 607.048 0 605.499 0 603.948L0 144.677C0 129.896 10.7654 117.318 25.3687 115.036Z" fill="white"/>
</mask>
<g mask="url(#mask0)">
<path d="M25.3687 115.036L128 99L256 119H720C736.569 119 750 132.431 750 149V609C750 625.569 736.569 639 720 639H256L128 619L34.6313 633.589C18.2614 636.147 2.91744 624.95 0.359639 608.58C0.12024 607.048 0 605.499 0 603.948L0 144.677C0 129.896 10.7654 117.318 25.3687 115.036Z" fill="#E6E6EF"/>
<path d="M25.3687 115.036L128 99L256 119H720C736.569 119 750 132.431 750 149V609C750 625.569 736.569 639 720 639H256L128 619L34.6313 633.589C18.2614 636.147 2.91744 624.95 0.359639 608.58C0.12024 607.048 0 605.499 0 603.948L0 144.677C0 129.896 10.7654 117.318 25.3687 115.036Z" fill="url(#paint0_linear)"/>
</g>
<mask id="mask1" mask-type="alpha" maskUnits="userSpaceOnUse" x="50" y="149" width="650" height="440">
<path d="M73.8647 160.31L128 149L256 165.296H670C686.569 165.296 700 178.728 700 195.296V559C700 575.569 686.569 589 670 589H256L128 572.704L86.1353 581.45C69.917 584.839 54.0225 574.438 50.6341 558.22C50.2125 556.202 50 554.146 50 552.084V189.676C50 175.472 59.961 163.215 73.8647 160.31Z" fill="white"/>
</mask>
<g mask="url(#mask1)">
<path d="M73.8647 160.31L128 149L256 165.296H670C686.569 165.296 700 178.728 700 195.296V559C700 575.569 686.569 589 670 589H256L128 572.704L86.1353 581.45C69.917 584.839 54.0225 574.438 50.6341 558.22C50.2125 556.202 50 554.146 50 552.084V189.676C50 175.472 59.961 163.215 73.8647 160.31Z" fill="#2FBCFD"/>
</g>
<mask id="mask2" mask-type="alpha" maskUnits="userSpaceOnUse" x="50" y="149" width="599" height="440">
<path d="M581.822 165.296C578.952 174.755 578.131 183.68 580.026 192C591.784 254.184 671.09 357.199 643.029 385C613.837 411.621 543.62 368.031 514.023 419C483.255 472.371 395.82 465.739 402.017 558C402.866 575.169 395.302 584.261 382.376 589H256.01L128.004 572.704L86.135 581.451C69.9167 584.839 54.0223 574.438 50.634 558.22C50.2125 556.202 50 554.146 50 552.085V189.676C50 175.473 59.9612 163.215 73.865 160.311L128.004 149L256.01 165.296H581.822Z" fill="white"/>
</mask>
<g mask="url(#mask2)">
<path d="M581.822 165.296C578.952 174.755 578.131 183.68 580.026 192C591.784 254.184 671.09 357.199 643.029 385C613.837 411.621 543.62 368.031 514.023 419C483.255 472.371 395.82 465.739 402.017 558C402.866 575.169 395.302 584.261 382.376 589H256.01L128.004 572.704L86.135 581.451C69.9167 584.839 54.0223 574.438 50.634 558.22C50.2125 556.202 50 554.146 50 552.085V189.676C50 175.473 59.9612 163.215 73.865 160.311L128.004 149L256.01 165.296H581.822Z" fill="#1FCB88"/>
<path d="M280 637L254 621L321 511C326.754 501.891 330.438 492.324 332 482L345 416C350.832 385.341 368.471 358.695 394 342L459 298C486.709 279.551 501.02 247.01 496 214L473 68L503 63L526 210C532.442 253.957 513.08 297.983 476 323L411 366C391.839 379.138 378.802 398.833 375 421L362 488C359.238 501.46 354.254 514.404 347 526L280 637Z" fill="white"/>
</g>
<path d="M478 0C403.119 0.668542 342 61.6158 342 137C342 215.201 447.675 335.306 473 363C475.564 365.776 480.436 365.776 483 363C508.325 335.306 614 215.2 614 137C614.001 61.6158 552.882 0.667542 478 0Z" fill="#5054FC"/>
<path d="M478 0C403.119 0.668542 342 61.6158 342 137C342 215.201 447.675 335.306 473 363C475.564 365.776 480.436 365.776 483 363C508.325 335.306 614 215.2 614 137C614.001 61.6158 552.882 0.667542 478 0Z" fill="url(#paint1_linear)"/>
<path fill-rule="evenodd" clip-rule="evenodd" d="M478 100.432C482.83 85.4132 496.48 74 511.768 74C532.688 74 549 91.8601 549 114.592C549 160.203 487.926 192 478 192C468.074 192 407 160.203 407 114.592C407 91.8601 423.312 74 444.232 74C459.52 74 473.17 85.4132 478 100.432Z" fill="white"/>
<path fill-rule="evenodd" clip-rule="evenodd" d="M128 99L256 119V639L128 619V99Z" fill="url(#paint2_linear)"/>
<defs>
<linearGradient id="paint0_linear" x1="375" y1="99" x2="375" y2="639" gradientUnits="userSpaceOnUse">
<stop stop-color="#E6E6EF" stop-opacity="0"/>
<stop offset="1" stop-opacity="0.05"/>
</linearGradient>
<linearGradient id="paint1_linear" x1="478" y1="0" x2="478" y2="365.082" gradientUnits="userSpaceOnUse">
<stop stop-color="#403F9F" stop-opacity="0"/>
<stop offset="1" stop-opacity="0.2"/>
</linearGradient>
<linearGradient id="paint2_linear" x1="256" y1="639" x2="13.6186" y2="581.547" gradientUnits="userSpaceOnUse">
<stop stop-opacity="0"/>
<stop offset="1" stop-opacity="0.2"/>
</linearGradient>
</defs>
</svg>
