<svg width="700" height="724" viewBox="0 0 700 724" fill="none" xmlns="http://www.w3.org/2000/svg">
<path d="M126 0H407C408.657 0 410 1.34315 410 3V245H123V3C123 1.34315 124.343 0 126 0Z" fill="#0BA368"/>
<path d="M126 0H407C408.657 0 410 1.34315 410 3V245H123V3C123 1.34315 124.343 0 126 0Z" fill="url(#paint0_linear)"/>
<path d="M336.149 245C325.466 216.938 298.312 197 266.5 197C234.688 197 207.534 216.938 196.851 245H153V102.459C190.972 98.1054 221.105 67.9718 225.459 30H308.541C312.856 67.6378 342.5 97.5748 380 102.338V245H336.149V245Z" fill="#1FCB88"/>
<path d="M336.149 245C325.466 216.938 298.312 197 266.5 197C234.688 197 207.534 216.938 196.851 245H153V102.459C190.972 98.1054 221.105 67.9718 225.459 30H308.541C312.856 67.6378 342.5 97.5748 380 102.338V245H336.149V245Z" fill="url(#paint1_linear)"/>
<path d="M448.5 344C502.9 344 547 299.9 547 245.5C547 191.1 502.9 147 448.5 147C394.1 147 350 191.1 350 245.5C350 299.9 394.1 344 448.5 344Z" fill="#FFC62C"/>
<path d="M448.5 344C502.9 344 547 299.9 547 245.5C547 191.1 502.9 147 448.5 147C394.1 147 350 191.1 350 245.5C350 299.9 394.1 344 448.5 344Z" fill="url(#paint2_linear)"/>
<path d="M448.5 324C491.854 324 527 288.854 527 245.5C527 202.146 491.854 167 448.5 167C405.146 167 370 202.146 370 245.5C370 288.854 405.146 324 448.5 324Z" fill="#FEEC80"/>
<path d="M448.5 324C491.854 324 527 288.854 527 245.5C527 202.146 491.854 167 448.5 167C405.146 167 370 202.146 370 245.5C370 288.854 405.146 324 448.5 324Z" fill="url(#paint3_linear)"/>
<path d="M660 245H10C4.47715 245 0 249.477 0 255V714C0 719.523 4.47715 724 10 724H660C665.523 724 670 719.523 670 714V255C670 249.477 665.523 245 660 245Z" fill="#393E41"/>
<path d="M660 245H10C4.47715 245 0 249.477 0 255V714C0 719.523 4.47715 724 10 724H660C665.523 724 670 719.523 670 714V255C670 249.477 665.523 245 660 245Z" fill="url(#paint4_linear)"/>
<path d="M610 295H60C54.4772 295 50 299.477 50 305V664C50 669.523 54.4772 674 60 674H610C615.523 674 620 669.523 620 664V305C620 299.477 615.523 295 610 295Z" fill="#4E565C"/>
<path d="M610 295H60C54.4772 295 50 299.477 50 305V664C50 669.523 54.4772 674 60 674H610C615.523 674 620 669.523 620 664V305C620 299.477 615.523 295 610 295Z" fill="url(#paint5_linear)"/>
<path fill-rule="evenodd" clip-rule="evenodd" d="M573.5 425H667C668.657 425 670 426.343 670 428V581C670 582.657 668.657 584 667 584H573.5C529.593 584 494 548.407 494 504.5C494 460.593 529.593 425 573.5 425Z" fill="url(#paint6_linear)"/>
<path d="M553.5 405H697C698.657 405 700 406.343 700 408V561C700 562.657 698.657 564 697 564H553.5C509.593 564 474 528.407 474 484.5C474 440.593 509.593 405 553.5 405Z" fill="#6F7981"/>
<path d="M553.5 405H697C698.657 405 700 406.343 700 408V561C700 562.657 698.657 564 697 564H553.5C509.593 564 474 528.407 474 484.5C474 440.593 509.593 405 553.5 405Z" fill="url(#paint7_linear)"/>
<path d="M553.5 522C574.211 522 591 505.211 591 484.5C591 463.789 574.211 447 553.5 447C532.789 447 516 463.789 516 484.5C516 505.211 532.789 522 553.5 522Z" fill="#2E3235"/>
<path d="M553.5 522C574.211 522 591 505.211 591 484.5C591 463.789 574.211 447 553.5 447C532.789 447 516 463.789 516 484.5C516 505.211 532.789 522 553.5 522Z" fill="url(#paint8_linear)"/>
<defs>
<linearGradient id="paint0_linear" x1="266.5" y1="0" x2="266.5" y2="245" gradientUnits="userSpaceOnUse">
<stop stop-color="#00A07D" stop-opacity="0"/>
<stop offset="1" stop-opacity="0.05"/>
</linearGradient>
<linearGradient id="paint1_linear" x1="266.5" y1="30" x2="266.5" y2="245" gradientUnits="userSpaceOnUse">
<stop stop-color="#52C883" stop-opacity="0"/>
<stop offset="1" stop-color="#00A07D" stop-opacity="0.1"/>
</linearGradient>
<linearGradient id="paint2_linear" x1="448.5" y1="147" x2="448.5" y2="344" gradientUnits="userSpaceOnUse">
<stop stop-color="#FFC62C" stop-opacity="0"/>
<stop offset="1" stop-color="#FF6663" stop-opacity="0.1"/>
</linearGradient>
<linearGradient id="paint3_linear" x1="448.5" y1="167" x2="448.5" y2="324" gradientUnits="userSpaceOnUse">
<stop stop-color="#FEEC80" stop-opacity="0"/>
<stop offset="1" stop-color="#FFC62B" stop-opacity="0.6"/>
</linearGradient>
<linearGradient id="paint4_linear" x1="335" y1="245" x2="335" y2="724" gradientUnits="userSpaceOnUse">
<stop stop-color="#393E41" stop-opacity="0"/>
<stop offset="1" stop-opacity="0.2"/>
</linearGradient>
<linearGradient id="paint5_linear" x1="335" y1="295" x2="335" y2="674" gradientUnits="userSpaceOnUse">
<stop stop-color="#4E565C" stop-opacity="0"/>
<stop offset="1" stop-color="#393E41" stop-opacity="0.5"/>
</linearGradient>
<linearGradient id="paint6_linear" x1="494" y1="425" x2="652.183" y2="600.096" gradientUnits="userSpaceOnUse">
<stop stop-opacity="0.2"/>
<stop offset="1" stop-color="#393E41" stop-opacity="0"/>
</linearGradient>
<linearGradient id="paint7_linear" x1="587" y1="405" x2="587" y2="564" gradientUnits="userSpaceOnUse">
<stop stop-color="#6F7981" stop-opacity="0"/>
<stop offset="1" stop-color="#4E565C" stop-opacity="0.2"/>
</linearGradient>
<linearGradient id="paint8_linear" x1="553.5" y1="447" x2="553.5" y2="522" gradientUnits="userSpaceOnUse">
<stop stop-color="#393E41" stop-opacity="0"/>
<stop offset="1" stop-opacity="0.2"/>
</linearGradient>
</defs>
</svg>
