<?xml version="1.0" standalone="no"?>
<!DOCTYPE svg PUBLIC "-//W3C//DTD SVG 20010904//EN"
 "http://www.w3.org/TR/2001/REC-SVG-20010904/DTD/svg10.dtd">
<svg version="1.0" xmlns="http://www.w3.org/2000/svg"
 width="600.000000pt" height="600.000000pt" viewBox="0 0 600.000000 600.000000"
 preserveAspectRatio="xMidYMid meet">
<metadata>
Created by potrace 1.15, written by Peter Selinger 2001-2017
</metadata>
<g transform="translate(0.000000,600.000000) scale(0.100000,-0.100000)"
fill="#000000" stroke="none">
<path d="M2863 4000 c-83 -17 -155 -65 -184 -123 -19 -36 -21 -54 -17 -141 5
-114 26 -174 80 -232 33 -34 42 -56 23 -51 -5 1 -9 6 -7 10 1 5 -5 7 -15 5
-12 -2 -25 -30 -45 -93 -59 -191 -62 -223 -63 -570 0 -307 1 -323 24 -402 13
-46 26 -81 30 -79 3 2 6 -9 7 -25 l1 -30 -71 6 c-264 23 -395 30 -421 23 -16
-4 -42 -21 -57 -38 -35 -38 -37 -92 -5 -170 25 -63 77 -104 142 -114 22 -4
236 -11 475 -16 l435 -9 17 22 c24 31 48 124 48 184 l0 50 70 6 c67 6 210 -1
210 -10 0 -2 -52 -94 -117 -204 -81 -141 -123 -203 -140 -210 -13 -5 -33 -24
-44 -43 -11 -19 -26 -37 -34 -40 -17 -6 -20 -32 -6 -40 5 -4 7 4 3 16 -3 14
-2 19 6 14 7 -4 12 -2 12 4 0 6 5 8 12 4 7 -4 8 -3 4 4 -4 7 -2 12 4 12 6 0 8
4 5 10 -3 5 -1 10 6 10 7 0 9 3 6 7 -8 7 11 33 24 33 4 0 -10 -32 -32 -70 -23
-39 -45 -67 -51 -64 -6 4 -8 1 -6 -7 3 -8 -3 -31 -13 -51 -21 -42 -24 -64 -8
-73 6 -4 75 -4 155 0 146 8 168 15 123 43 -20 13 -20 14 -2 28 17 14 17 14 -4
5 -14 -7 -30 -7 -52 0 -35 12 -38 21 -16 39 8 7 38 43 66 81 28 38 55 67 60
63 5 -3 7 1 4 8 -3 7 4 27 15 43 18 27 20 28 20 8 0 -12 -6 -26 -12 -30 -7 -4
-14 -19 -14 -33 -1 -14 -5 -51 -9 -82 l-8 -56 34 -10 c19 -5 58 -19 87 -31 67
-27 72 -26 72 3 0 17 -9 27 -30 36 -16 7 -31 15 -31 19 -13 68 -3 104 68 271
73 170 123 307 123 339 0 84 -134 144 -383 172 -70 8 -115 9 -125 3 -10 -5
-57 -7 -107 -4 l-90 6 87 4 c47 3 84 2 81 -2 -2 -5 1 -8 7 -8 8 0 10 9 6 25
-4 14 -9 45 -12 69 -6 43 -7 44 -31 33 -18 -8 -20 -13 -11 -19 9 -6 6 -7 -8
-3 -11 3 -38 -2 -59 -11 -98 -41 -265 -54 -395 -32 -60 10 -70 15 -70 33 0 15
2 17 9 6 7 -11 42 -13 182 -9 164 4 179 6 269 37 52 19 96 34 97 35 1 1 -2 18
-7 38 -10 35 -11 36 -40 25 -16 -6 -26 -15 -23 -21 3 -5 1 -6 -5 -2 -14 8 -84
-3 -78 -13 2 -3 -10 -6 -27 -7 -18 -1 -95 -5 -172 -9 -133 -7 -225 2 -225 23
0 4 66 7 148 7 138 0 297 19 288 33 -4 6 16 9 97 15 15 1 27 3 27 4 0 3 -29
145 -35 168 -4 20 1 20 118 22 67 1 166 5 219 8 97 7 97 7 103 36 4 16 11 31
16 34 27 18 -2 25 -98 26 -194 1 -265 12 -314 47 -23 17 -47 29 -52 25 -6 -3
-7 -2 -4 4 4 6 -4 20 -18 33 -13 12 -29 35 -35 51 -7 16 -16 26 -20 24 -5 -3
-12 0 -16 6 -4 8 -3 9 4 5 32 -20 4 22 -60 89 -89 94 -177 161 -230 175 -62
17 -41 19 42 5 41 -8 121 -14 178 -14 97 -1 104 0 128 24 16 16 24 34 22 48
-3 21 -9 22 -133 30 -104 7 -141 13 -182 32 -47 21 -53 27 -53 55 0 38 37 75
89 90 20 6 81 13 136 16 113 7 125 14 125 76 0 123 -169 228 -317 198z"/>
<path d="M2009 2608 c83 -19 19 -32 -176 -36 -116 -3 -188 -9 -198 -16 -17
-12 -34 -72 -35 -118 0 -20 7 -30 28 -40 l27 -13 6 -150 c3 -83 7 -151 7 -152
1 -2 87 -3 190 -3 l189 0 24 26 c22 24 24 35 29 160 5 124 7 135 28 150 19 13
22 24 22 75 0 75 -12 99 -49 99 -16 0 -42 7 -57 15 -16 8 -40 14 -54 14 -16
-1 -9 -5 19 -11z"/>
<path d="M1178 1960 c-174 -58 -182 -61 -231 -109 -41 -39 -32 -38 -212 -32
-104 3 -199 -33 -298 -113 -61 -50 -77 -81 -76 -153 1 -73 18 -121 52 -146 26
-20 26 -20 85 2 79 30 191 29 342 -2 l115 -23 0 28 c1 15 -3 28 -7 28 -4 0 -8
-9 -8 -20 0 -24 -15 -25 -75 -5 -25 9 -49 14 -53 12 -4 -3 -16 0 -27 4 -18 9
-18 9 3 5 15 -3 22 1 22 11 0 9 7 13 18 11 9 -2 16 -9 15 -16 -3 -12 75 -37
85 -28 3 3 0 6 -6 6 -7 0 -12 5 -12 12 0 6 3 8 7 5 7 -7 33 11 33 23 0 4 -12
19 -27 34 -18 18 -30 23 -37 16 -13 -13 -46 -13 -46 1 0 6 -20 9 -52 7 -43 -2
-54 -7 -56 -22 -2 -10 3 -23 12 -28 26 -14 19 -29 -11 -24 -16 2 -32 5 -36 5
-5 1 -5 6 -2 11 4 7 -13 8 -52 4 -32 -3 -59 -10 -61 -15 -6 -16 -20 -10 -27
11 -3 11 -15 20 -25 20 -10 0 -22 5 -25 10 -4 6 -14 9 -23 8 -11 -2 -18 5 -20
20 -2 12 1 22 7 22 6 0 11 9 11 20 0 11 -4 20 -10 20 -5 0 -10 -8 -10 -17 0
-12 -3 -14 -10 -7 -12 12 -3 44 11 44 4 0 6 7 3 15 -4 8 -10 15 -15 15 -5 0
-9 -7 -9 -15 0 -8 -7 -15 -16 -15 -8 0 -12 5 -9 10 3 6 1 10 -4 10 -6 0 -11
-5 -11 -11 0 -5 -5 -7 -11 -3 -8 5 -10 -6 -5 -37 3 -24 7 -50 8 -57 1 -8 9
-11 18 -9 22 6 65 -27 56 -42 -6 -9 -14 -8 -32 4 -14 9 -28 13 -33 10 -12 -7
-20 16 -27 79 -5 40 -3 55 10 65 9 7 14 17 11 21 -3 5 4 11 15 15 11 3 20 12
20 20 0 9 9 12 28 9 20 -3 23 -2 12 6 -13 9 -13 10 0 10 13 0 13 2 1 9 -10 7
-7 9 12 8 25 -2 40 -17 17 -17 -5 0 -10 -5 -10 -10 0 -6 7 -6 19 2 10 6 17 17
14 24 -2 7 1 14 9 17 7 2 2 2 -12 0 l-25 -4 25 20 c25 20 25 20 34 0 7 -14 15
-18 30 -13 12 4 23 8 26 11 7 6 -23 22 -32 17 -4 -3 -8 -1 -8 4 0 10 24 22 43
22 7 0 6 -5 -3 -11 -12 -9 -12 -10 3 -5 10 3 21 6 23 6 3 0 3 4 0 9 -4 5 13
12 36 16 28 5 43 4 46 -4 2 -6 10 -11 18 -11 9 0 12 5 8 11 -4 8 4 9 27 4 68
-16 119 -12 152 11 18 12 37 23 42 25 6 2 9 11 8 19 -1 9 6 6 18 -9 10 -13 25
-21 33 -18 15 6 16 30 2 44 -4 4 -7 4 -6 -2 6 -29 0 -38 -14 -20 -19 26 -12
34 24 29 17 -3 30 -1 30 5 0 6 13 17 30 26 36 19 50 20 26 2 -17 -12 -17 -14
-2 -20 9 -4 16 -3 16 1 0 5 16 6 35 4 21 -3 35 0 35 7 0 6 -7 11 -15 11 -22 0
-18 27 5 33 11 3 20 1 20 -3 0 -4 9 -6 20 -3 12 3 22 -1 25 -10 5 -10 16 -13
40 -10 30 4 33 2 28 -16 -4 -16 -1 -21 14 -21 21 0 68 38 59 48 -3 3 -15 -3
-25 -12 -19 -17 -20 -17 -33 3 -14 23 -48 29 -48 9 -1 -8 -6 -6 -14 5 -7 9
-22 17 -32 18 -18 0 -18 1 1 8 11 5 23 4 26 0 6 -10 59 12 59 24 0 4 9 7 20 7
12 0 17 -5 14 -14 -3 -8 0 -17 5 -21 6 -3 8 -11 5 -17 -6 -9 -2 -8 37 14 4 1
15 -4 25 -13 25 -22 71 -32 76 -18 3 9 10 9 26 0 16 -8 28 -9 41 -1 26 13 54
13 46 -1 -4 -6 -13 -8 -21 -5 -8 3 -17 -1 -21 -10 -3 -9 -12 -13 -21 -9 -12 4
-13 3 -2 -9 10 -13 17 -13 43 -2 18 7 33 18 33 24 1 7 2 17 3 22 0 6 12 10 25
10 14 0 28 5 31 10 8 12 35 -6 35 -22 0 -6 -7 -5 -15 2 -21 18 -32 3 -16 -22
17 -28 2 -41 -51 -42 -41 -1 -43 -3 -43 -30 0 -35 22 -47 27 -14 3 20 9 23 43
23 22 0 46 4 54 9 10 7 18 4 25 -6 9 -15 11 -15 21 -1 10 13 15 14 36 2 32
-18 41 -18 60 -2 14 12 17 12 22 -1 4 -10 1 -13 -8 -9 -8 3 -18 -2 -21 -11 -3
-9 -13 -16 -20 -16 -8 0 -24 -9 -36 -20 -12 -11 -28 -20 -35 -20 -18 0 -16
-17 2 -24 18 -6 45 2 45 15 0 5 18 18 40 29 22 11 40 16 40 10 0 -5 9 -10 20
-10 37 0 20 -19 -19 -22 -35 -3 -38 -5 -27 -19 11 -15 19 -16 91 -3 89 16 246
16 257 0 13 -19 22 4 12 31 -13 38 -57 67 -100 65 -32 -1 -43 5 -79 43 -31 34
-49 45 -71 45 -31 0 -94 -33 -94 -50 0 -6 -10 -15 -23 -21 -34 -15 -91 11
-116 53 -33 56 -38 58 -110 58 -47 0 -80 -6 -108 -20 -46 -22 -59 -20 -117 22
-21 15 -51 28 -65 28 -14 -1 -92 -23 -173 -50z"/>
<path d="M4480 1729 c-68 -36 -103 -49 -137 -51 -7 -1 -11 -4 -8 -6 3 -3 -3
-11 -13 -19 -9 -8 0 -5 21 7 28 16 37 18 37 8 0 -11 12 -13 58 -8 31 4 88 1
127 -5 58 -10 74 -10 90 1 11 8 15 15 10 16 -6 0 -14 2 -20 3 -5 2 -18 3 -29
4 -12 1 -17 7 -14 19 6 20 -17 47 -27 32 -3 -5 -12 -7 -20 -3 -8 3 -15 0 -15
-7 0 -8 9 -11 25 -8 21 4 25 1 25 -18 0 -16 6 -24 17 -24 9 0 14 -2 11 -5 -3
-3 -29 -1 -59 4 -40 6 -46 9 -24 11 17 1 35 1 40 0 6 -1 6 2 2 6 -4 5 -23 7
-42 6 -18 -2 -36 2 -40 7 -3 6 -11 8 -17 5 -7 -5 -8 -2 -4 5 5 7 14 10 22 7 8
-3 23 2 34 12 12 9 22 15 24 12 2 -3 10 1 18 8 13 10 18 8 32 -13 9 -14 15
-29 12 -34 -3 -5 8 -7 25 -5 20 3 28 0 23 -7 -4 -7 -1 -10 7 -7 8 3 22 -2 32
-10 17 -15 18 -14 13 13 -5 27 -4 28 8 12 11 -14 19 -15 39 -8 14 5 28 7 33 3
4 -4 4 -1 -1 7 -6 11 -2 13 19 9 21 -4 26 -2 21 9 -4 11 -1 13 10 9 11 -4 14
-2 9 6 -5 8 -2 9 9 5 10 -4 24 -10 34 -14 11 -4 14 -3 9 5 -4 7 -2 12 4 12 6
0 13 -7 17 -16 3 -8 12 -13 20 -10 8 3 12 2 9 -3 -4 -5 4 -7 16 -3 14 3 19 1
14 -6 -3 -6 2 -12 11 -15 14 -3 11 -6 -9 -11 -18 -5 -28 -15 -28 -27 0 -23 4
-24 24 -3 9 9 34 15 58 16 24 0 51 4 61 9 11 7 17 6 17 -1 0 -6 5 -8 12 -4 6
4 9 3 5 -2 -3 -5 -25 -9 -48 -9 -42 0 -81 -21 -72 -37 2 -5 21 -8 42 -8 24 0
47 -8 62 -21 l24 -21 11 28 12 28 7 -32 c4 -18 13 -32 21 -32 9 0 13 4 10 9
-5 8 10 5 84 -14 8 -2 17 -4 19 -4 2 -1 -2 -8 -9 -16 -7 -8 -17 -12 -23 -8 -7
4 -8 0 -3 -13 5 -10 9 -25 9 -31 0 -7 5 -13 11 -13 6 0 5 -4 -3 -9 -9 -6 -10
-11 -3 -15 6 -4 16 3 22 14 6 11 7 20 1 20 -15 0 -21 28 -7 39 13 11 14 9 17
-43 1 -18 6 -23 18 -19 13 4 14 3 1 -5 -8 -6 -18 -8 -22 -6 -10 6 -9 -4 1 -31
5 -11 14 -20 22 -20 7 0 15 -8 17 -17 2 -11 -3 -18 -12 -18 -9 0 -16 5 -16 10
0 6 -7 10 -16 10 -9 0 -14 -7 -12 -17 3 -14 12 -17 38 -15 34 2 34 2 15 -14
-14 -12 -15 -15 -4 -11 12 4 16 -1 15 -16 -1 -11 -8 -22 -16 -24 -13 -4 -13
-3 0 6 23 16 3 26 -25 13 -14 -7 -30 -12 -35 -12 -18 0 -10 17 13 28 l22 11
-23 0 c-13 1 -21 4 -19 9 3 4 -33 6 -79 4 -55 -2 -84 0 -84 7 0 6 -9 11 -20
11 -25 0 -25 -9 -2 -26 15 -12 8 -13 -48 -14 -55 -1 -61 -3 -42 -12 17 -9 39
-8 85 0 34 7 85 15 114 18 48 6 52 5 50 -15 -1 -18 -7 -21 -57 -21 -30 1 -99
-2 -153 -4 -54 -3 -96 -2 -93 2 2 4 -10 6 -29 4 -54 -6 -48 14 8 27 29 6 59
16 67 21 12 8 11 11 -7 16 -13 4 -23 11 -23 18 0 6 -5 4 -10 -4 -9 -13 -10
-13 -11 0 0 10 -3 9 -9 -5 -9 -19 -9 -19 -16 3 -8 26 -21 29 -27 5 -2 -10 -3
0 0 22 5 47 8 52 27 36 11 -9 15 -8 20 4 3 9 2 13 -4 10 -18 -11 -23 25 -5 45
9 10 14 24 10 29 -10 18 -25 12 -25 -9 0 -24 -15 -26 -24 -4 -13 34 -20 1 -19
-89 1 -83 1 -87 -8 -42 -5 28 -6 57 -3 65 3 8 2 11 -2 7 -4 -3 -17 16 -30 43
-14 30 -38 60 -64 78 -25 19 -36 32 -28 35 7 3 2 5 -12 5 -14 -1 -47 7 -75 17
-66 23 -277 30 -317 9 -33 -17 -52 -18 -42 -2 5 7 3 8 -5 4 -7 -5 -10 -11 -7
-14 9 -9 -46 -42 -58 -35 -6 3 -8 2 -3 -2 10 -11 -63 -86 -76 -78 -6 3 -7 2
-4 -4 8 -13 -37 -56 -47 -46 -4 5 -6 1 -4 -7 1 -8 -4 -14 -12 -15 -8 -1 -14
-7 -12 -14 1 -7 -6 -23 -16 -36 -16 -20 -19 -38 -16 -106 4 -96 24 -164 69
-234 140 -220 451 -260 628 -80 58 60 110 161 126 246 l12 64 247 -1 c227 -1
251 0 299 19 51 20 54 20 113 4 73 -21 94 -21 113 -3 25 25 15 59 -21 76 -17
9 -46 32 -62 52 -36 43 -71 53 -133 38 -59 -16 -81 -3 -96 53 -11 47 -18 52
-107 76 -28 7 -45 19 -54 38 -29 57 -39 64 -92 57 -44 -6 -52 -4 -76 19 -56
54 -117 60 -198 20 l-54 -26 -25 23 c-20 19 -31 22 -64 16 -34 -5 -42 -3 -51
14 -12 22 -40 27 -40 8 0 -10 -2 -10 -8 -2 -5 8 -30 0 -82 -27z m928 -291 c31
16 94 13 109 -6 12 -16 12 -15 6 3 -6 17 -4 18 8 8 9 -7 15 -23 13 -35 -1 -13
-3 -27 -3 -31 -1 -5 -7 -5 -13 -1 -7 4 -10 4 -6 -1 4 -4 2 -15 -5 -23 -8 -11
-8 -14 0 -9 6 4 19 4 28 1 12 -5 13 -9 5 -14 -8 -5 -7 -9 4 -13 9 -4 16 -2 16
3 0 6 7 10 16 10 8 0 13 -4 10 -9 -3 -5 0 -11 7 -14 7 -3 13 5 13 18 1 18 -3
23 -16 20 -25 -5 -60 5 -60 17 0 5 4 7 9 3 5 -3 13 0 17 6 4 7 3 9 -4 5 -6 -4
-10 1 -9 13 1 17 4 16 34 -8 18 -14 39 -26 45 -26 22 0 17 -42 -6 -55 -17 -9
-31 -8 -64 3 -23 8 -62 14 -87 13 -26 -1 -44 3 -41 9 2 6 13 9 25 8 12 -2 20
1 17 6 -3 5 4 12 17 16 14 4 17 8 9 12 -7 3 -19 -1 -27 -7 -8 -7 -22 -10 -30
-6 -9 3 -13 2 -10 -4 3 -6 1 -10 -4 -10 -6 0 -11 16 -11 35 0 19 -5 35 -11 35
-8 0 -9 -13 -5 -40 6 -37 5 -40 -16 -39 -17 1 -19 2 -5 6 9 2 17 8 17 13 0 5
-7 7 -15 4 -11 -5 -13 -2 -8 11 4 11 0 22 -8 29 -18 13 -30 42 -22 50 3 3 14
1 24 -5 12 -6 26 -6 37 -1z m-788 -22 c80 -22 94 -44 87 -133 -10 -127 -53
-189 -154 -219 -54 -16 -153 -18 -205 -4 -73 21 -130 125 -132 241 -1 65 20
103 67 125 41 19 258 12 337 -10z"/>
<path d="M4373 1359 c-43 -12 -51 -52 -24 -113 42 -96 158 -117 239 -43 43 40
24 120 -38 152 -32 17 -126 19 -177 4z"/>
<path d="M1741 1499 c-17 -10 -37 -16 -43 -13 -6 4 -8 3 -5 -3 6 -10 -44 -65
-60 -65 -4 0 -10 -2 -13 -5 -3 -4 1 -3 8 1 17 10 15 5 -12 -45 -48 -88 -44
-241 11 -356 92 -198 348 -291 546 -200 135 62 234 224 240 391 2 72 5 74 62
50 20 -8 42 -13 48 -11 7 2 -3 7 -20 11 -18 4 -35 12 -38 17 -4 5 -13 9 -21 9
-21 0 -75 51 -67 64 3 6 3 8 -2 4 -11 -10 -76 42 -68 55 3 5 2 7 -4 4 -5 -4
-39 9 -74 28 -88 46 -159 63 -297 70 -64 4 -126 8 -137 10 -12 3 -36 -5 -54
-16z m399 -154 c104 -22 116 -36 113 -130 -5 -170 -78 -236 -257 -236 -51 0
-104 5 -117 10 -47 18 -83 71 -105 156 -33 122 -4 191 91 216 42 12 186 3 275
-16z"/>
<path d="M1910 1278 c-34 -18 -37 -62 -8 -117 41 -76 120 -101 198 -61 68 35
81 96 31 152 -28 32 -33 33 -113 36 -54 2 -92 -2 -108 -10z"/>
</g>
</svg>
