<svg width="162" height="292" viewBox="0 0 162 292" fill="none" xmlns="http://www.w3.org/2000/svg">
<g clip-path="url(#clip0)">
<path d="M73.7063 259.846C73.7301 260.573 73.7157 261.251 73.6548 261.809C73.2737 265.304 71.5306 267.634 68.7763 271.318C66.022 275.002 59.4523 282.691 52.7723 278.319C46.5131 274.222 56.544 262.012 60.8298 259.471C63.7777 261.552 70.4761 262.111 73.7063 259.846Z" fill="#A7A7EE"/>
<path d="M73.7063 259.846C73.7301 260.573 73.7157 261.251 73.6548 261.809C73.2737 265.304 71.5306 267.634 68.7763 271.318C66.022 275.002 59.4523 282.691 52.7723 278.319C46.5131 274.222 56.544 262.012 60.8298 259.471C63.7777 261.552 70.4761 262.111 73.7063 259.846Z" fill="url(#paint0_linear)"/>
<path d="M106.298 258.695C110.925 260.585 124.021 268.532 120.976 274.497C117.614 281.083 104.322 273.593 101.238 271.438C98.1548 269.284 95.5325 266.682 94.2082 264.202C93.7383 263.323 93.4837 261.304 93.4019 259.253C96.4832 260.834 103.052 261.552 106.298 258.695Z" fill="#A7A7EE"/>
<path d="M106.298 258.695C110.925 260.585 124.021 268.532 120.976 274.497C117.614 281.083 104.322 273.593 101.238 271.438C98.1548 269.284 95.5325 266.682 94.2082 264.202C93.7383 263.323 93.4837 261.304 93.4019 259.253C96.4832 260.834 103.052 261.552 106.298 258.695Z" fill="url(#paint1_linear)"/>
<path d="M98.3387 139.791C113.577 156.408 108.908 245.151 108.415 254.422C108.354 263.489 93.9309 261.197 92.1378 258.295C90.2946 254.979 84.6727 173.884 82.8363 173.87C80.8642 173.884 76.9483 253.19 75.0851 258.295C72.8686 262.985 61.4428 261.855 59.5827 258.295C57.3571 254.32 46.8496 165.033 63.4583 139.791C65.1458 137.226 95.987 137.226 98.3387 139.791Z" fill="#464D89"/>
<path d="M98.3387 139.791C113.577 156.408 108.908 245.151 108.415 254.422C108.354 263.489 93.9309 261.197 92.1378 258.295C90.2946 254.979 84.6727 173.884 82.8363 173.87C80.8642 173.884 76.9483 253.19 75.0851 258.295C72.8686 262.985 61.4428 261.855 59.5827 258.295C57.3571 254.32 46.8496 165.033 63.4583 139.791C65.1458 137.226 95.987 137.226 98.3387 139.791Z" fill="url(#paint2_linear)"/>
<mask id="mask0" mask-type="alpha" maskUnits="userSpaceOnUse" x="28" y="-1" width="98" height="101">
<path d="M48.0572 17.0402C54.3989 -0.748126 80.7181 -5.8902 94.5644 7.74577C108.534 21.6119 115.061 12.8119 122.469 18.9765C129.927 25.329 122.494 36.9393 115.105 43.3744C107.786 49.9054 124.688 61.8788 120.143 77.454C115.656 92.9965 94.7343 87.0548 87.9759 96.4301C81.0949 105.917 68.66 88.0843 47.2821 85.9739C26.148 83.6914 22.7181 58.6274 38.3682 46.8598C54.2886 35.0237 41.9592 35.0237 48.0572 17.0402Z" fill="white"/>
</mask>
<g mask="url(#mask0)">
<path d="M48.0572 17.0402C54.3989 -0.748126 80.7181 -5.8902 94.5644 7.74577C108.534 21.6119 115.061 12.8119 122.469 18.9765C129.927 25.329 122.494 36.9393 115.105 43.3744C107.786 49.9054 124.688 61.8788 120.143 77.454C115.656 92.9965 94.7343 87.0548 87.9759 96.4301C81.0949 105.917 68.66 88.0843 47.2821 85.9739C26.148 83.6914 22.7181 58.6274 38.3682 46.8598C54.2886 35.0237 41.9592 35.0237 48.0572 17.0402Z" fill="#464D89"/>
<path d="M48.0572 17.0402C54.3989 -0.748126 80.7181 -5.8902 94.5644 7.74577C108.534 21.6119 115.061 12.8119 122.469 18.9765C129.927 25.329 122.494 36.9393 115.105 43.3744C107.786 49.9054 124.688 61.8788 120.143 77.454C115.656 92.9965 94.7343 87.0548 87.9759 96.4301C81.0949 105.917 68.66 88.0843 47.2821 85.9739C26.148 83.6914 22.7181 58.6274 38.3682 46.8598C54.2886 35.0237 41.9592 35.0237 48.0572 17.0402Z" fill="url(#paint3_linear)"/>
</g>
<mask id="mask1" mask-type="alpha" maskUnits="userSpaceOnUse" x="47" y="42" width="65" height="58">
<path d="M105.834 89.0225C100.402 90.4301 94.6585 91.1712 90.7323 93.8079C89.6567 94.5217 88.7222 95.3778 87.9759 96.4304C86.2883 98.7379 84.0806 99.3893 81.4247 99.0465C75.0217 97.8887 65.979 90.1138 53.4062 87.0299C40.5364 72.5894 50.8305 40.7718 58.1338 53.8309C63.8051 63.8576 77.8815 59.9832 100.378 42.2129C110.683 58.8841 113.67 72.2193 109.292 82.1015C108.05 84.944 106.958 87.1691 105.834 89.0225Z" fill="white"/>
</mask>
<g mask="url(#mask1)">
<path d="M105.834 89.0225C100.402 90.4301 94.6585 91.1712 90.7323 93.8079C89.6567 94.5217 88.7222 95.3778 87.9759 96.4304C86.2883 98.7379 84.0806 99.3893 81.4247 99.0465C75.0217 97.8887 65.979 90.1138 53.4062 87.0299C40.5364 72.5894 50.8305 40.7718 58.1338 53.8309C63.8051 63.8576 77.8815 59.9832 100.378 42.2129C110.683 58.8841 113.67 72.2193 109.292 82.1015C108.05 84.944 106.958 87.1691 105.834 89.0225Z" fill="url(#paint4_linear)"/>
</g>
<mask id="mask2" mask-type="alpha" maskUnits="userSpaceOnUse" x="0" y="66" width="162" height="78">
<path d="M79.9475 83.6728C80.2979 83.6581 80.6488 83.6507 80.9999 83.6507C81.3535 83.6507 81.7053 83.658 82.0553 83.6725C82.2113 83.6573 82.3762 83.65 82.5502 83.6507C94.9498 83.5998 106.667 88.4453 118.206 111.147C119.563 113.591 135.839 85.4213 135.646 82.8762C135.839 80.3001 136.52 67.9456 137.971 66.9982C139.816 66.6972 141.136 67.7219 139.909 73.5817C139.204 80.0375 160.355 64.765 161.612 70.4836C163.404 76.4807 158.192 82.3743 148.823 84.4252C139.509 87.035 140.892 85.9935 139.521 92.1706C138.168 98.6155 129.734 127.194 118.206 127.799C115.032 127.962 109.736 124.468 104.078 119.382L98.4401 139.805C92.6388 142.386 86.8254 143.677 80.9999 143.677C75.1834 143.677 69.37 142.386 63.5597 139.805L57.9217 119.382C52.2636 124.468 46.9682 127.962 43.7942 127.799C32.2657 127.194 23.832 98.6155 22.4784 92.1706C21.1079 85.9935 22.4904 87.035 13.1769 84.4252C3.80796 82.3743 -1.40393 76.4807 0.387468 70.4836C1.64513 64.765 22.796 80.0375 22.0908 73.5817C20.8634 67.7219 22.1843 66.6972 24.0286 66.9982C25.4797 67.9456 26.1608 80.3001 26.354 82.8762C26.1608 85.4213 42.4371 113.591 43.7942 111.147C55.3326 88.4453 67.05 83.5998 79.4497 83.6507C79.6247 83.65 79.7906 83.6574 79.9475 83.6728Z" fill="white"/>
</mask>
<g mask="url(#mask2)">
<path d="M79.9475 83.6728C80.2979 83.6581 80.6488 83.6507 80.9999 83.6507C81.3535 83.6507 81.7053 83.658 82.0553 83.6725C82.2113 83.6573 82.3762 83.65 82.5502 83.6507C94.9498 83.5998 106.667 88.4453 118.206 111.147C119.563 113.591 135.839 85.4213 135.646 82.8762C135.839 80.3001 136.52 67.9456 137.971 66.9982C139.816 66.6972 141.136 67.7219 139.909 73.5817C139.204 80.0375 160.355 64.765 161.612 70.4836C163.404 76.4807 158.192 82.3743 148.823 84.4252C139.509 87.035 140.892 85.9935 139.521 92.1706C138.168 98.6155 129.734 127.194 118.206 127.799C115.032 127.962 109.736 124.468 104.078 119.382L98.4401 139.805C92.6388 142.386 86.8254 143.677 80.9999 143.677C75.1834 143.677 69.37 142.386 63.5597 139.805L57.9217 119.382C52.2636 124.468 46.9682 127.962 43.7942 127.799C32.2657 127.194 23.832 98.6155 22.4784 92.1706C21.1079 85.9935 22.4904 87.035 13.1769 84.4252C3.80796 82.3743 -1.40393 76.4807 0.387468 70.4836C1.64513 64.765 22.796 80.0375 22.0908 73.5817C20.8634 67.7219 22.1843 66.6972 24.0286 66.9982C25.4797 67.9456 26.1608 80.3001 26.354 82.8762C26.1608 85.4213 42.4371 113.591 43.7942 111.147C55.3326 88.4453 67.05 83.5998 79.4497 83.6507C79.6247 83.65 79.7906 83.6574 79.9475 83.6728Z" fill="#FFC62C"/>
<path d="M79.9475 83.6728C80.2979 83.6581 80.6488 83.6507 80.9999 83.6507C81.3535 83.6507 81.7053 83.658 82.0553 83.6725C82.2113 83.6573 82.3762 83.65 82.5502 83.6507C94.9498 83.5998 106.667 88.4453 118.206 111.147C119.563 113.591 135.839 85.4213 135.646 82.8762C135.839 80.3001 136.52 67.9456 137.971 66.9982C139.816 66.6972 141.136 67.7219 139.909 73.5817C139.204 80.0375 160.355 64.765 161.612 70.4836C163.404 76.4807 158.192 82.3743 148.823 84.4252C139.509 87.035 140.892 85.9935 139.521 92.1706C138.168 98.6155 129.734 127.194 118.206 127.799C115.032 127.962 109.736 124.468 104.078 119.382L98.4401 139.805C92.6388 142.386 86.8254 143.677 80.9999 143.677C75.1834 143.677 69.37 142.386 63.5597 139.805L57.9217 119.382C52.2636 124.468 46.9682 127.962 43.7942 127.799C32.2657 127.194 23.832 98.6155 22.4784 92.1706C21.1079 85.9935 22.4904 87.035 13.1769 84.4252C3.80796 82.3743 -1.40393 76.4807 0.387468 70.4836C1.64513 64.765 22.796 80.0375 22.0908 73.5817C20.8634 67.7219 22.1843 66.6972 24.0286 66.9982C25.4797 67.9456 26.1608 80.3001 26.354 82.8762C26.1608 85.4213 42.4371 113.591 43.7942 111.147C55.3326 88.4453 67.05 83.5998 79.4497 83.6507C79.6247 83.65 79.7906 83.6574 79.9475 83.6728Z" fill="url(#paint5_linear)"/>
<path d="M107.846 122.569C106.623 121.604 105.36 120.533 104.079 119.38L98.4401 139.806C92.6129 142.387 86.7995 143.678 80.9999 143.678C75.2051 143.678 69.3917 142.387 63.5597 139.806L57.9209 119.38C57.0043 120.205 56.0972 120.988 55.207 121.72C51.593 120.71 49.2626 118.562 48.2055 117.475C47.1484 116.388 45.1601 114.886 43.7942 111.148C55.3442 88.4056 67.0519 83.5543 79.4497 83.6518C79.6295 83.6505 79.7996 83.6577 79.9603 83.6734C80.3065 83.659 80.6531 83.6518 80.9999 83.6518C81.3492 83.6518 81.6967 83.659 82.0425 83.6731C82.2023 83.6576 82.3714 83.6505 82.5502 83.6518C94.948 83.5543 106.656 88.4056 118.206 111.148C118.079 112.826 116.95 114.934 114.819 117.475C112.689 120.015 110.364 121.713 107.846 122.569Z" fill="#A7A7EE"/>
<path d="M107.846 122.569C106.623 121.604 105.36 120.533 104.079 119.38L98.4401 139.806C92.6129 142.387 86.7995 143.678 80.9999 143.678C75.2051 143.678 69.3917 142.387 63.5597 139.806L57.9209 119.38C57.0043 120.205 56.0972 120.988 55.207 121.72C51.593 120.71 49.2626 118.562 48.2055 117.475C47.1484 116.388 45.1601 114.886 43.7942 111.148C55.3442 88.4056 67.0519 83.5543 79.4497 83.6518C79.6295 83.6505 79.7996 83.6577 79.9603 83.6734C80.3065 83.659 80.6531 83.6518 80.9999 83.6518C81.3492 83.6518 81.6967 83.659 82.0425 83.6731C82.2023 83.6576 82.3714 83.6505 82.5502 83.6518C94.948 83.5543 106.656 88.4056 118.206 111.148C118.079 112.826 116.95 114.934 114.819 117.475C112.689 120.015 110.364 121.713 107.846 122.569Z" fill="url(#paint6_linear)"/>
<path d="M86.8132 95.2683C90.666 95.2683 93.7893 91.4538 93.7893 86.7484C93.7893 82.043 90.666 78.2285 86.8132 78.2285C82.9605 78.2285 79.8372 82.043 79.8372 86.7484C79.8372 91.4538 82.9605 95.2683 86.8132 95.2683Z" fill="white"/>
<path d="M75.1865 95.2683C79.0393 95.2683 82.1626 91.4538 82.1626 86.7484C82.1626 82.043 79.0393 78.2285 75.1865 78.2285C71.3337 78.2285 68.2104 82.043 68.2104 86.7484C68.2104 91.4538 71.3337 95.2683 75.1865 95.2683Z" fill="white"/>
<path d="M59.0126 123.347C59.0685 123.553 58.9463 123.766 58.7397 123.822C58.5331 123.877 58.3203 123.755 58.2644 123.549C58.2551 123.514 58.2551 123.514 58.2457 123.48C58.1166 123.005 57.4777 120.764 57.3231 120.176C57.0135 118.999 56.8298 118.079 56.7451 117.183C56.4185 113.729 57.6739 110.53 61.4832 105.763C61.6167 105.596 61.8606 105.568 62.0278 105.702C62.1951 105.835 62.2224 106.079 62.0889 106.246C58.3942 110.869 57.2116 113.883 57.5168 117.11C57.5969 117.957 57.7729 118.839 58.0728 119.979C58.2249 120.558 58.8625 122.794 58.9937 123.277C59.0032 123.312 59.0032 123.312 59.0126 123.347Z" fill="white"/>
<path d="M103.693 123.827C103.637 124.033 103.424 124.155 103.218 124.099C103.011 124.044 102.889 123.831 102.945 123.624C103.025 123.329 103.689 120.962 103.854 120.323C104.148 119.178 104.324 118.277 104.406 117.412C104.728 114.039 103.53 110.916 99.7981 106.246C99.6645 106.079 99.6919 105.835 99.8591 105.702C100.026 105.568 100.27 105.596 100.404 105.763C104.251 110.577 105.521 113.888 105.178 117.486C105.091 118.397 104.908 119.335 104.604 120.516C104.437 121.165 103.771 123.539 103.693 123.827Z" fill="white"/>
</g>
<path d="M80.9999 72.8066C84.6386 72.8066 87.5884 76.1561 87.5884 80.288V84.6887C87.5884 88.8205 84.6386 92.17 80.9999 92.17C77.3612 92.17 74.4114 88.8205 74.4114 84.6887V80.288C74.4114 76.1561 77.3612 72.8066 80.9999 72.8066Z" fill="#FFC62C"/>
<path d="M80.9999 72.8066C84.6386 72.8066 87.5884 76.1561 87.5884 80.288V84.6887C87.5884 88.8205 84.6386 92.17 80.9999 92.17C77.3612 92.17 74.4114 88.8205 74.4114 84.6887V80.288C74.4114 76.1561 77.3612 72.8066 80.9999 72.8066Z" fill="url(#paint7_linear)"/>
<path fill-rule="evenodd" clip-rule="evenodd" d="M87.5884 84.5322C86.6973 84.7146 85.7911 84.8114 84.8755 84.8114C81.8159 84.8114 78.1073 83.9905 74.4114 82.4444L74.4114 79.7769C74.4114 76.1409 77.3612 73.1934 80.9999 73.1934C84.6386 73.1934 87.5884 76.1409 87.5884 79.7769V84.5322Z" fill="url(#paint8_linear)"/>
<path d="M53.4831 57.3166C49.9061 51.2852 55.3195 47.6288 56.9711 50.3458C57.7955 51.5161 58.0629 52.6293 58.1338 53.8312C61.3038 59.2103 73.3079 47.739 77.1242 43.375C81.2893 38.7728 81.8869 33.9253 84.8754 43.375C86.9817 49.6288 94.556 47.1546 100.378 42.2132C100.44 44.0436 100.378 45.9993 100.378 48.0222C100.378 49.8487 102.703 52.2642 102.703 60.8021C102.703 69.2608 93.7693 80.94 83.7128 80.94C76.0506 80.94 64.3178 75.7917 58.9089 66.9983C54.4024 66.9931 57.218 63.3304 53.4831 57.3166Z" fill="#FFC62C"/>
<path d="M53.4831 57.3166C49.9061 51.2852 55.3195 47.6288 56.9711 50.3458C57.7955 51.5161 58.0629 52.6293 58.1338 53.8312C61.3038 59.2103 73.3079 47.739 77.1242 43.375C81.2893 38.7728 81.8869 33.9253 84.8754 43.375C86.9817 49.6288 94.556 47.1546 100.378 42.2132C100.44 44.0436 100.378 45.9993 100.378 48.0222C100.378 49.8487 102.703 52.2642 102.703 60.8021C102.703 69.2608 93.7693 80.94 83.7128 80.94C76.0506 80.94 64.3178 75.7917 58.9089 66.9983C54.4024 66.9931 57.218 63.3304 53.4831 57.3166Z" fill="url(#paint9_linear)"/>
<path fill-rule="evenodd" clip-rule="evenodd" d="M84.8754 51.1204C81.8853 41.6724 81.2885 46.5372 77.1242 51.1204C73.3182 55.5356 63.4085 62.6909 58.1338 53.8312C61.3308 59.2747 73.3182 47.7625 77.1242 43.375C81.2885 38.7641 81.8853 33.8993 84.8754 43.375C86.973 49.6591 94.5368 47.176 100.378 42.2132C100.413 44.0538 100.351 46.0166 100.378 48.0222C100.351 49.8797 86.973 57.4321 84.8754 51.1204Z" fill="url(#paint10_linear)"/>
<path d="M57.1649 64.6738C57.379 64.6738 57.5525 64.8472 57.5525 65.0611C57.5525 65.275 57.379 65.4484 57.1649 65.4484C57.0305 65.4484 56.7809 65.7799 56.5751 66.4262C56.3353 67.1792 56.196 68.2135 56.196 69.321C56.196 70.4286 56.3353 71.4629 56.5751 72.2159C56.7809 72.8622 57.0305 73.1937 57.1649 73.1937C57.2994 73.1937 57.549 72.8622 57.7548 72.2159C57.9945 71.4629 58.1338 70.4286 58.1338 69.321C58.1338 68.9855 58.1211 68.6554 58.0962 68.3358C58.0796 68.1226 58.2392 67.9362 58.4526 67.9197C58.666 67.9031 58.8524 68.0625 58.869 68.2757C58.8955 68.6154 58.9089 68.9656 58.9089 69.321C58.9089 71.8922 58.2479 73.9683 57.1649 73.9683C56.082 73.9683 55.4209 71.8922 55.4209 69.321C55.4209 66.7499 56.082 64.6738 57.1649 64.6738Z" fill="white"/>
</g>
<defs>
<linearGradient id="paint0_linear" x1="62.2437" y1="259.471" x2="62.2437" y2="279.626" gradientUnits="userSpaceOnUse">
<stop stop-color="#A7A7EE" stop-opacity="0"/>
<stop offset="1" stop-color="#4C55A0" stop-opacity="0.2"/>
</linearGradient>
<linearGradient id="paint1_linear" x1="107.416" y1="258.695" x2="107.416" y2="277.149" gradientUnits="userSpaceOnUse">
<stop stop-color="#A7A7EE" stop-opacity="0"/>
<stop offset="1" stop-color="#4C55A0" stop-opacity="0.2"/>
</linearGradient>
<linearGradient id="paint2_linear" x1="81.864" y1="137.867" x2="81.864" y2="261.403" gradientUnits="userSpaceOnUse">
<stop stop-color="#403F9F" stop-opacity="0"/>
<stop offset="1" stop-opacity="0.2"/>
</linearGradient>
<linearGradient id="paint3_linear" x1="77.1043" y1="-0.00390625" x2="77.1043" y2="99.1913" gradientUnits="userSpaceOnUse">
<stop stop-color="#403F9F" stop-opacity="0"/>
<stop offset="1" stop-opacity="0.2"/>
</linearGradient>
<linearGradient id="paint4_linear" x1="47.2832" y1="42.2129" x2="103.817" y2="105.742" gradientUnits="userSpaceOnUse">
<stop stop-opacity="0.3"/>
<stop offset="1" stop-color="#1F1845" stop-opacity="0"/>
</linearGradient>
<linearGradient id="paint5_linear" x1="80.9999" y1="66.9512" x2="80.9999" y2="143.677" gradientUnits="userSpaceOnUse">
<stop stop-color="#FFC62C" stop-opacity="0"/>
<stop offset="1" stop-color="#FF6663" stop-opacity="0.1"/>
</linearGradient>
<linearGradient id="paint6_linear" x1="80.9999" y1="83.6504" x2="80.9999" y2="143.678" gradientUnits="userSpaceOnUse">
<stop stop-color="#A7A7EE" stop-opacity="0"/>
<stop offset="1" stop-color="#4C55A0" stop-opacity="0.2"/>
</linearGradient>
<linearGradient id="paint7_linear" x1="80.9999" y1="72.8066" x2="80.9999" y2="92.17" gradientUnits="userSpaceOnUse">
<stop stop-color="#FFC62C" stop-opacity="0"/>
<stop offset="1" stop-color="#FF6663" stop-opacity="0.1"/>
</linearGradient>
<linearGradient id="paint8_linear" x1="87.5884" y1="73.1934" x2="76.126" y2="86.7884" gradientUnits="userSpaceOnUse">
<stop stop-opacity="0.35"/>
<stop offset="1" stop-color="#FFC62C" stop-opacity="0"/>
</linearGradient>
<linearGradient id="paint9_linear" x1="77.4941" y1="37.957" x2="77.4941" y2="80.94" gradientUnits="userSpaceOnUse">
<stop stop-color="#FFC62C" stop-opacity="0"/>
<stop offset="1" stop-color="#FF6663" stop-opacity="0.1"/>
</linearGradient>
<linearGradient id="paint10_linear" x1="100.389" y1="37.9434" x2="84.7831" y2="70.7352" gradientUnits="userSpaceOnUse">
<stop stop-opacity="0.2"/>
<stop offset="1" stop-color="#FFC62C" stop-opacity="0"/>
</linearGradient>
<clipPath id="clip0">
<rect width="162" height="292" fill="white"/>
</clipPath>
</defs>
</svg>
