<?xml version="1.0" standalone="no"?>
<!DOCTYPE svg PUBLIC "-//W3C//DTD SVG 20010904//EN"
 "http://www.w3.org/TR/2001/REC-SVG-20010904/DTD/svg10.dtd">
<svg version="1.0" xmlns="http://www.w3.org/2000/svg"
 width="24" height="24" viewBox="0 0 24 24" fill="#2ca4fc"
>

<g transform="translate(0.000000,14.000000) scale(0.100000,-0.100000)"
fill="#000000" stroke="none">
<path d="M32 128 c-6 -6 -12 -18 -12 -25 0 -7 -4 -13 -10 -13 -5 0 -10 -20
-10 -45 l0 -45 55 0 55 0 0 45 c0 25 -3 45 -8 45 -4 0 -12 10 -17 22 -12 27
-35 34 -53 16z m46 -21 c3 -12 -3 -17 -22 -17 -25 0 -35 18 -19 34 12 12 38 2
41 -17z"/>
</g>
</svg>
