<svg width="150" height="150" viewBox="0 0 150 150" fill="none" xmlns="http://www.w3.org/2000/svg">
<path d="M150 75C150 89.478 145.81 103.647 137.934 115.795C130.059 127.944 118.836 137.554 105.62 143.465C92.4031 149.376 77.7583 151.335 63.4529 149.106C49.1475 146.877 35.7931 140.555 25.0015 130.903C14.21 121.251 6.44268 108.682 2.63718 94.7135C-1.16832 80.7446 -0.849337 65.9728 3.55562 52.1811C7.96058 38.3895 16.2632 26.1676 27.4613 16.9907C38.6594 7.81387 52.2743 2.0743 66.6626 0.464854L75 75H150Z" fill="#EA9797"/>
<path d="M150 75C150 89.0153 146.073 102.75 138.664 114.647C131.255 126.544 120.661 136.127 108.083 142.309C95.5049 148.491 81.4462 151.025 67.5012 149.624C53.5562 148.223 40.2828 142.942 29.1862 134.381C18.0897 125.82 9.61405 114.321 4.72041 101.187C-0.173231 88.0542 -1.28904 73.8126 1.49952 60.0776C4.28807 46.3425 10.8694 33.6636 20.4972 23.4787C30.125 13.2937 42.414 6.01028 55.9707 2.45426L75 75H150Z" fill="#47E2BD"/>
<path opacity="0.6" d="M150 75C150 88.8325 146.175 102.395 138.947 114.189C131.719 125.983 121.37 135.549 109.045 141.828C96.72 148.107 82.8984 150.855 69.1087 149.768C55.319 148.682 42.0984 143.803 30.9087 135.671C19.719 127.539 10.9961 116.471 5.70463 103.691C0.413141 90.9103 -1.24085 76.9155 0.925536 63.2538C3.09192 49.592 8.99429 36.7955 17.98 26.2791C26.9657 15.7628 38.6847 7.93631 51.8412 3.66507L75 75H150Z" fill="#A33A00"/>
<path d="M150 75C150 86.3864 147.407 97.6233 142.419 107.859C137.43 118.094 130.177 127.059 121.208 134.075C112.24 141.09 101.791 145.971 90.656 148.348C79.5204 150.725 67.9899 150.535 56.9386 147.793C45.8874 145.051 35.6055 139.828 26.8727 132.522C18.1398 125.215 11.1852 116.016 6.53624 105.622C1.88725 95.2281 -0.334099 83.9119 0.040626 72.5318C0.415351 61.1516 3.37631 50.0061 8.699 39.9404L75 75H150Z" fill="#2F78A6"/>
<path d="M150 75C150 89.1315 146.008 102.976 138.483 114.937C130.958 126.898 120.206 136.49 107.468 142.608C94.7291 148.726 80.5212 151.12 66.4811 149.515C52.441 147.909 39.1401 142.37 28.1108 133.536L75 75H150Z" fill="#D2D7DC"/>
<path d="M66.6618 0.464945C80.7057 -1.10614 94.9077 1.32245 107.632 7.4709C120.355 13.6193 131.083 23.2375 138.579 35.2171C146.075 47.1967 150.034 61.0503 150 75.1818C149.966 89.3132 145.94 103.148 138.386 115.091L75 75L66.6618 0.464945Z" fill="#1A2831"/>
</svg>
