<svg width="71" height="75" viewBox="0 0 71 75" fill="none" xmlns="http://www.w3.org/2000/svg">
<ellipse cx="35.5" cy="37.5" rx="35.5" ry="37.5" fill="#BEBFF3"/>
<path d="M43.5536 54.2375C43.5281 54.0398 43.3835 53.887 43.1963 53.8511L41.2992 53.6803C40.2953 53.4018 39.5552 52.2245 39.4021 51.1371L39.3 50.4452H31.4732L31.3711 51.1281C31.2095 52.2155 30.4778 53.3928 29.474 53.6714L27.5768 53.8421C27.3982 53.887 27.245 54.0398 27.2195 54.2285C27.1855 54.5071 27.3897 54.7498 27.6534 54.7498H43.1198C43.375 54.7587 43.5877 54.5161 43.5536 54.2375ZM53.8391 20.8791C53.4562 20.4747 52.9288 20.25 52.3928 20.25H18.3889C17.8444 20.25 17.3254 20.4747 16.9426 20.8791C16.5598 21.2835 16.3301 21.8406 16.3301 22.4068V46.8505C16.3301 47.4256 16.5598 47.9738 16.9426 48.3782C17.3254 48.7826 17.8359 49.0073 18.3718 49.0073H52.4013C52.9458 49.0073 53.4477 48.7826 53.8305 48.3782C54.2134 47.9738 54.4431 47.4167 54.4431 46.8505V22.4068C54.4516 21.8406 54.2219 21.2835 53.8391 20.8791ZM35.3866 46.8505C35.0123 46.8505 34.706 46.527 34.706 46.1316C34.706 45.7361 35.0123 45.4126 35.3866 45.4126C35.7609 45.4126 36.0672 45.7361 36.0672 46.1316C36.0672 46.527 35.7609 46.8505 35.3866 46.8505ZM52.7331 43.2558H18.0486C17.8614 43.2558 17.7083 43.0941 17.7083 42.8964V22.7663C17.7083 22.1731 18.1677 21.6879 18.7292 21.6879H52.0525C52.614 21.6879 53.0734 22.1731 53.0734 22.7663V42.8964C53.0734 43.0941 52.9203 43.2558 52.7331 43.2558Z" fill="#5640FB"/>
</svg>
