<svg width="80" height="80" viewBox="0 0 80 80" fill="none" xmlns="http://www.w3.org/2000/svg">
<circle cx="40" cy="40" r="40" fill="#2F78A6"/>
<path d="M48.5892 58.0493C48.562 57.8384 48.4078 57.6754 48.2081 57.637L46.1845 57.4549C45.1137 57.1577 44.3242 55.9018 44.1609 54.7417L44.052 54.0035H35.7034L35.5945 54.7321C35.4221 55.8922 34.6417 57.1481 33.5709 57.4453L31.5473 57.6274C31.3567 57.6754 31.1934 57.8384 31.1662 58.0397C31.1299 58.3369 31.3477 58.5957 31.629 58.5957H48.1264C48.3987 58.6053 48.6255 58.3465 48.5892 58.0493ZM59.5603 22.4616C59.152 22.0302 58.5894 21.7905 58.0177 21.7905H21.7468C21.166 21.7905 20.6125 22.0302 20.2041 22.4616C19.7958 22.8931 19.5508 23.4875 19.5508 24.0915V50.1686C19.5508 50.7822 19.7958 51.367 20.2041 51.7984C20.6125 52.2299 21.157 52.4695 21.7287 52.4695H58.0267C58.6075 52.4695 59.1429 52.2299 59.5513 51.7984C59.9596 51.367 60.2046 50.7726 60.2046 50.1686V24.0915C60.2137 23.4875 59.9687 22.8931 59.5603 22.4616ZM39.8777 50.1686C39.4784 50.1686 39.1517 49.8235 39.1517 49.4016C39.1517 48.9798 39.4784 48.6347 39.8777 48.6347C40.277 48.6347 40.6037 48.9798 40.6037 49.4016C40.6037 49.8235 40.277 50.1686 39.8777 50.1686ZM58.3807 46.3337H21.3838C21.1842 46.3337 21.0209 46.1612 21.0209 45.9502V24.4749C21.0209 23.8422 21.5109 23.3245 22.1098 23.3245H57.6547C58.2536 23.3245 58.7436 23.8422 58.7436 24.4749V45.9502C58.7436 46.1612 58.5803 46.3337 58.3807 46.3337Z" fill="#D2D7DC"/>
</svg>
