<svg width="80" height="80" viewBox="0 0 80 80" fill="none" xmlns="http://www.w3.org/2000/svg">
<circle cx="40" cy="40" r="40" fill="#2F78A6"/>
<path d="M40 20.9907C28.9519 20.9907 20 29.944 20 40.9938C20 52.0435 28.9519 60.9968 40 60.9968C51.0481 60.9968 60 52.0435 60 40.9938C60 29.944 51.0481 20.9907 40 20.9907ZM22.6923 40.9938C22.6923 36.3681 24.4904 32.0212 27.7596 28.7515C31.0288 25.4818 35.375 23.6834 40 23.6834C44.625 23.6834 48.9712 25.4818 52.2404 28.7515C55.3365 31.8481 57.1154 35.9161 57.2981 40.2629C56.4519 39.2723 54.9712 37.9548 53.0865 37.9548C50.4423 37.9548 49.0769 40.4264 48.1827 42.0612C48.0481 42.3017 47.9231 42.5325 47.8077 42.7344C46.7115 44.5808 45.1827 45.6195 43.7212 45.5137C42.4327 45.4271 41.3365 44.4366 40.625 42.744C39.7404 40.6187 37.8269 38.3395 35.5385 38.0125C34.4519 37.8587 32.8365 38.0895 31.2404 40.0705C30.9327 40.4552 30.5769 40.9745 30.1731 41.5708C29.1731 43.0614 27.6538 45.3021 26.5096 45.4944C24.8462 45.7637 23.5385 44.7732 23.0096 44.3116C22.7981 43.2345 22.6923 42.1189 22.6923 40.9938Z" fill="#D2D7DC"/>
</svg>
